<mxfile host="Electron" modified="2024-08-12T12:15:26.256Z" agent="Mozilla/5.0 (Macintosh; Intel Mac OS X 10_15_7) AppleWebKit/537.36 (KHTML, like Gecko) draw.io/24.6.4 Chrome/124.0.6367.207 Electron/30.0.6 Safari/537.36" etag="2XalZj2qzITJUqG2O_1-" version="24.6.4" type="device">
  <diagram name="페이지-1" id="or3gyQj-9Zz5dBU-gjU7">
    <mxGraphModel dx="1020" dy="776" grid="1" gridSize="10" guides="1" tooltips="1" connect="1" arrows="1" fold="1" page="1" pageScale="1" pageWidth="827" pageHeight="1169" math="0" shadow="0">
      <root>
        <mxCell id="0" />
        <mxCell id="1" parent="0" />
        <mxCell id="vLq8mKLzVaUx6nJlCxdM-1" value="myapp_users" style="html=1;whiteSpace=wrap;" vertex="1" parent="1">
          <mxGeometry x="120" y="340" width="110" height="30" as="geometry" />
        </mxCell>
        <mxCell id="vLq8mKLzVaUx6nJlCxdM-2" value="myapp_project" style="html=1;whiteSpace=wrap;" vertex="1" parent="1">
          <mxGeometry x="340" y="340" width="110" height="30" as="geometry" />
        </mxCell>
        <mxCell id="vLq8mKLzVaUx6nJlCxdM-18" style="edgeStyle=orthogonalEdgeStyle;rounded=0;orthogonalLoop=1;jettySize=auto;html=1;entryX=0.5;entryY=1;entryDx=0;entryDy=0;startArrow=ERoneToMany;startFill=0;endArrow=ERone;endFill=0;" edge="1" parent="1" source="vLq8mKLzVaUx6nJlCxdM-3" target="vLq8mKLzVaUx6nJlCxdM-2">
          <mxGeometry relative="1" as="geometry">
            <Array as="points">
              <mxPoint x="395" y="415" />
            </Array>
          </mxGeometry>
        </mxCell>
        <mxCell id="vLq8mKLzVaUx6nJlCxdM-199" value="1..*" style="edgeLabel;html=1;align=center;verticalAlign=middle;resizable=0;points=[];" vertex="1" connectable="0" parent="vLq8mKLzVaUx6nJlCxdM-18">
          <mxGeometry x="-0.6582" relative="1" as="geometry">
            <mxPoint y="15" as="offset" />
          </mxGeometry>
        </mxCell>
        <mxCell id="vLq8mKLzVaUx6nJlCxdM-198" style="edgeStyle=orthogonalEdgeStyle;rounded=0;orthogonalLoop=1;jettySize=auto;html=1;entryX=0.5;entryY=1;entryDx=0;entryDy=0;strokeColor=default;align=center;verticalAlign=middle;fontFamily=Helvetica;fontSize=11;fontColor=default;labelBackgroundColor=default;startArrow=ERoneToMany;startFill=0;endArrow=ERone;endFill=0;" edge="1" parent="1" source="vLq8mKLzVaUx6nJlCxdM-3" target="vLq8mKLzVaUx6nJlCxdM-1">
          <mxGeometry relative="1" as="geometry">
            <Array as="points">
              <mxPoint x="175" y="415" />
            </Array>
          </mxGeometry>
        </mxCell>
        <mxCell id="vLq8mKLzVaUx6nJlCxdM-200" value="0..*" style="edgeLabel;html=1;align=center;verticalAlign=middle;resizable=0;points=[];" vertex="1" connectable="0" parent="vLq8mKLzVaUx6nJlCxdM-198">
          <mxGeometry x="-0.6758" relative="1" as="geometry">
            <mxPoint x="-4" y="15" as="offset" />
          </mxGeometry>
        </mxCell>
        <mxCell id="vLq8mKLzVaUx6nJlCxdM-263" style="edgeStyle=orthogonalEdgeStyle;rounded=0;orthogonalLoop=1;jettySize=auto;html=1;entryX=0.5;entryY=0;entryDx=0;entryDy=0;endArrow=none;endFill=0;" edge="1" parent="1" source="vLq8mKLzVaUx6nJlCxdM-3" target="vLq8mKLzVaUx6nJlCxdM-205">
          <mxGeometry relative="1" as="geometry" />
        </mxCell>
        <mxCell id="vLq8mKLzVaUx6nJlCxdM-3" value="myapp_members" style="html=1;whiteSpace=wrap;" vertex="1" parent="1">
          <mxGeometry x="230" y="400" width="110" height="30" as="geometry" />
        </mxCell>
        <mxCell id="vLq8mKLzVaUx6nJlCxdM-22" value="테이블" style="shape=note;size=20;whiteSpace=wrap;html=1;verticalAlign=top;" vertex="1" parent="1">
          <mxGeometry x="400" y="610" width="180" height="100" as="geometry" />
        </mxCell>
        <mxCell id="vLq8mKLzVaUx6nJlCxdM-23" style="edgeStyle=orthogonalEdgeStyle;rounded=0;orthogonalLoop=1;jettySize=auto;html=1;entryX=0;entryY=0.5;entryDx=0;entryDy=0;entryPerimeter=0;exitX=1;exitY=0.5;exitDx=0;exitDy=0;exitPerimeter=0;" edge="1" parent="1" source="vLq8mKLzVaUx6nJlCxdM-25" target="vLq8mKLzVaUx6nJlCxdM-22">
          <mxGeometry relative="1" as="geometry">
            <mxPoint x="195" y="660.0000000000002" as="sourcePoint" />
          </mxGeometry>
        </mxCell>
        <mxCell id="vLq8mKLzVaUx6nJlCxdM-24" value="Data 파일" style="edgeLabel;html=1;align=center;verticalAlign=middle;resizable=0;points=[];" vertex="1" connectable="0" parent="vLq8mKLzVaUx6nJlCxdM-23">
          <mxGeometry x="0.0846" y="-1" relative="1" as="geometry">
            <mxPoint x="-16" y="-16" as="offset" />
          </mxGeometry>
        </mxCell>
        <mxCell id="vLq8mKLzVaUx6nJlCxdM-25" value="DBMS" style="strokeWidth=2;html=1;shape=mxgraph.flowchart.database;whiteSpace=wrap;" vertex="1" parent="1">
          <mxGeometry x="60" y="610" width="130" height="100" as="geometry" />
        </mxCell>
        <mxCell id="vLq8mKLzVaUx6nJlCxdM-30" value="" style="group" vertex="1" connectable="0" parent="1">
          <mxGeometry x="410" y="645" width="160" height="20" as="geometry" />
        </mxCell>
        <mxCell id="vLq8mKLzVaUx6nJlCxdM-26" value="data" style="whiteSpace=wrap;html=1;align=center;" vertex="1" parent="vLq8mKLzVaUx6nJlCxdM-30">
          <mxGeometry width="40" height="20" as="geometry" />
        </mxCell>
        <mxCell id="vLq8mKLzVaUx6nJlCxdM-27" value="data" style="whiteSpace=wrap;html=1;align=center;" vertex="1" parent="vLq8mKLzVaUx6nJlCxdM-30">
          <mxGeometry x="40" width="40" height="20" as="geometry" />
        </mxCell>
        <mxCell id="vLq8mKLzVaUx6nJlCxdM-28" value="data" style="whiteSpace=wrap;html=1;align=center;" vertex="1" parent="vLq8mKLzVaUx6nJlCxdM-30">
          <mxGeometry x="80" width="40" height="20" as="geometry" />
        </mxCell>
        <mxCell id="vLq8mKLzVaUx6nJlCxdM-29" value="data" style="whiteSpace=wrap;html=1;align=center;" vertex="1" parent="vLq8mKLzVaUx6nJlCxdM-30">
          <mxGeometry x="120" width="40" height="20" as="geometry" />
        </mxCell>
        <mxCell id="vLq8mKLzVaUx6nJlCxdM-31" value="파일을 컬럼에 저장&lt;div&gt;-&amp;gt; 데이터베이스가 커진다.&lt;/div&gt;&lt;div&gt;-&amp;gt; 파일 안에 파일이 저장됨&lt;/div&gt;&lt;div&gt;-&amp;gt; 파일 입출력시 속도 저하&lt;/div&gt;" style="html=1;whiteSpace=wrap;align=left;" vertex="1" parent="1">
          <mxGeometry x="225.75" y="675" width="135" height="90" as="geometry" />
        </mxCell>
        <mxCell id="vLq8mKLzVaUx6nJlCxdM-34" value="테이블&lt;div&gt;&lt;ul style=&quot;padding-left: 20px;&quot;&gt;&lt;li&gt;제목, 내용, 조회수 등&lt;/li&gt;&lt;li&gt;파일시스템의 파일 경로&lt;/li&gt;&lt;/ul&gt;&lt;/div&gt;" style="shape=note;size=20;whiteSpace=wrap;html=1;verticalAlign=top;align=left;spacingLeft=10;spacingTop=5;" vertex="1" parent="1">
          <mxGeometry x="400" y="900" width="180" height="80" as="geometry" />
        </mxCell>
        <mxCell id="vLq8mKLzVaUx6nJlCxdM-35" value="파일 시스템&lt;div&gt;&lt;ul style=&quot;padding-left: 20px;&quot;&gt;&lt;li&gt;첨부 파일 등&lt;/li&gt;&lt;li&gt;운영체제 디렉토리&lt;/li&gt;&lt;/ul&gt;&lt;/div&gt;" style="shape=note;size=20;whiteSpace=wrap;html=1;verticalAlign=top;align=left;spacingLeft=10;spacingTop=5;" vertex="1" parent="1">
          <mxGeometry x="400" y="1030" width="180" height="80" as="geometry" />
        </mxCell>
        <mxCell id="vLq8mKLzVaUx6nJlCxdM-37" value="첨부파일" style="whiteSpace=wrap;html=1;align=center;" vertex="1" parent="1">
          <mxGeometry x="410" y="675" width="50" height="20" as="geometry" />
        </mxCell>
        <mxCell id="vLq8mKLzVaUx6nJlCxdM-38" value="첨부파일" style="whiteSpace=wrap;html=1;align=center;" vertex="1" parent="1">
          <mxGeometry x="460" y="675" width="50" height="20" as="geometry" />
        </mxCell>
        <mxCell id="vLq8mKLzVaUx6nJlCxdM-39" value="첨부파일" style="whiteSpace=wrap;html=1;align=center;" vertex="1" parent="1">
          <mxGeometry x="510" y="675" width="50" height="20" as="geometry" />
        </mxCell>
        <mxCell id="vLq8mKLzVaUx6nJlCxdM-40" style="edgeStyle=orthogonalEdgeStyle;rounded=0;orthogonalLoop=1;jettySize=auto;html=1;entryX=0;entryY=0;entryDx=180;entryDy=50;entryPerimeter=0;" edge="1" parent="1" source="vLq8mKLzVaUx6nJlCxdM-34" target="vLq8mKLzVaUx6nJlCxdM-35">
          <mxGeometry relative="1" as="geometry">
            <Array as="points">
              <mxPoint x="600" y="940" />
              <mxPoint x="600" y="1080" />
            </Array>
          </mxGeometry>
        </mxCell>
        <mxCell id="vLq8mKLzVaUx6nJlCxdM-41" value="첨부 파일을&amp;nbsp;&lt;div&gt;파일 시스템에서 읽어온다.&lt;/div&gt;" style="edgeLabel;html=1;align=left;verticalAlign=middle;resizable=0;points=[];" vertex="1" connectable="0" parent="vLq8mKLzVaUx6nJlCxdM-40">
          <mxGeometry x="-0.0422" y="-1" relative="1" as="geometry">
            <mxPoint x="11" as="offset" />
          </mxGeometry>
        </mxCell>
        <mxCell id="vLq8mKLzVaUx6nJlCxdM-43" value="DBMS" style="strokeWidth=2;html=1;shape=mxgraph.flowchart.database;whiteSpace=wrap;" vertex="1" parent="1">
          <mxGeometry x="60" y="955" width="130" height="100" as="geometry" />
        </mxCell>
        <mxCell id="vLq8mKLzVaUx6nJlCxdM-44" style="edgeStyle=orthogonalEdgeStyle;rounded=0;orthogonalLoop=1;jettySize=auto;html=1;entryX=0;entryY=0.5;entryDx=0;entryDy=0;entryPerimeter=0;" edge="1" parent="1" source="vLq8mKLzVaUx6nJlCxdM-43" target="vLq8mKLzVaUx6nJlCxdM-34">
          <mxGeometry relative="1" as="geometry" />
        </mxCell>
        <mxCell id="vLq8mKLzVaUx6nJlCxdM-46" value="data" style="edgeLabel;html=1;align=center;verticalAlign=middle;resizable=0;points=[];" vertex="1" connectable="0" parent="vLq8mKLzVaUx6nJlCxdM-44">
          <mxGeometry x="0.6185" y="3" relative="1" as="geometry">
            <mxPoint y="-5" as="offset" />
          </mxGeometry>
        </mxCell>
        <mxCell id="vLq8mKLzVaUx6nJlCxdM-45" style="edgeStyle=orthogonalEdgeStyle;rounded=0;orthogonalLoop=1;jettySize=auto;html=1;entryX=0;entryY=0.5;entryDx=0;entryDy=0;entryPerimeter=0;" edge="1" parent="1" source="vLq8mKLzVaUx6nJlCxdM-43" target="vLq8mKLzVaUx6nJlCxdM-35">
          <mxGeometry relative="1" as="geometry" />
        </mxCell>
        <mxCell id="vLq8mKLzVaUx6nJlCxdM-47" value="file" style="edgeLabel;html=1;align=center;verticalAlign=middle;resizable=0;points=[];" vertex="1" connectable="0" parent="vLq8mKLzVaUx6nJlCxdM-45">
          <mxGeometry x="0.6086" y="2" relative="1" as="geometry">
            <mxPoint x="4" y="-13" as="offset" />
          </mxGeometry>
        </mxCell>
        <mxCell id="vLq8mKLzVaUx6nJlCxdM-48" value="" style="html=1;shadow=0;dashed=0;align=center;verticalAlign=middle;shape=mxgraph.arrows2.arrow;dy=0.75;dx=12.1;direction=south;notch=0;fillColor=#f8cecc;strokeColor=#b85450;" vertex="1" parent="1">
          <mxGeometry x="269.5" y="780" width="47.5" height="40" as="geometry" />
        </mxCell>
        <mxCell id="vLq8mKLzVaUx6nJlCxdM-55" value="test1" style="shape=note;size=20;whiteSpace=wrap;html=1;verticalAlign=top;align=center;" vertex="1" parent="1">
          <mxGeometry x="60" y="1190" width="240" height="160" as="geometry" />
        </mxCell>
        <mxCell id="vLq8mKLzVaUx6nJlCxdM-81" value="test2" style="shape=note;size=20;whiteSpace=wrap;html=1;verticalAlign=top;align=center;" vertex="1" parent="1">
          <mxGeometry x="400" y="1190" width="180" height="160" as="geometry" />
        </mxCell>
        <mxCell id="vLq8mKLzVaUx6nJlCxdM-88" value="Parent Table" style="shape=table;startSize=20;container=1;collapsible=0;childLayout=tableLayout;strokeColor=default;fontSize=10;" vertex="1" parent="1">
          <mxGeometry x="81.75" y="1230" width="196.5" height="86" as="geometry" />
        </mxCell>
        <mxCell id="vLq8mKLzVaUx6nJlCxdM-89" value="" style="shape=tableRow;horizontal=0;startSize=0;swimlaneHead=0;swimlaneBody=0;strokeColor=inherit;top=0;left=0;bottom=0;right=0;collapsible=0;dropTarget=0;fillColor=none;points=[[0,0.5],[1,0.5]];portConstraint=eastwest;fontSize=10;" vertex="1" parent="vLq8mKLzVaUx6nJlCxdM-88">
          <mxGeometry y="20" width="196.5" height="16" as="geometry" />
        </mxCell>
        <mxCell id="vLq8mKLzVaUx6nJlCxdM-90" value="no(PK)" style="shape=partialRectangle;html=1;whiteSpace=wrap;connectable=0;strokeColor=inherit;overflow=hidden;fillColor=none;top=0;left=0;bottom=0;right=0;pointerEvents=1;fontSize=10;" vertex="1" parent="vLq8mKLzVaUx6nJlCxdM-89">
          <mxGeometry width="44" height="16" as="geometry">
            <mxRectangle width="44" height="16" as="alternateBounds" />
          </mxGeometry>
        </mxCell>
        <mxCell id="vLq8mKLzVaUx6nJlCxdM-91" value="title" style="shape=partialRectangle;html=1;whiteSpace=wrap;connectable=0;strokeColor=inherit;overflow=hidden;fillColor=none;top=0;left=0;bottom=0;right=0;pointerEvents=1;fontSize=10;" vertex="1" parent="vLq8mKLzVaUx6nJlCxdM-89">
          <mxGeometry x="44" width="45" height="16" as="geometry">
            <mxRectangle width="45" height="16" as="alternateBounds" />
          </mxGeometry>
        </mxCell>
        <mxCell id="vLq8mKLzVaUx6nJlCxdM-92" value="content" style="shape=partialRectangle;html=1;whiteSpace=wrap;connectable=0;strokeColor=inherit;overflow=hidden;fillColor=none;top=0;left=0;bottom=0;right=0;pointerEvents=1;fontSize=10;" vertex="1" parent="vLq8mKLzVaUx6nJlCxdM-89">
          <mxGeometry x="89" width="54" height="16" as="geometry">
            <mxRectangle width="54" height="16" as="alternateBounds" />
          </mxGeometry>
        </mxCell>
        <mxCell id="vLq8mKLzVaUx6nJlCxdM-101" value="rdt" style="shape=partialRectangle;html=1;whiteSpace=wrap;connectable=0;strokeColor=inherit;overflow=hidden;fillColor=none;top=0;left=0;bottom=0;right=0;pointerEvents=1;fontSize=10;" vertex="1" parent="vLq8mKLzVaUx6nJlCxdM-89">
          <mxGeometry x="143" width="54" height="16" as="geometry">
            <mxRectangle width="54" height="16" as="alternateBounds" />
          </mxGeometry>
        </mxCell>
        <mxCell id="vLq8mKLzVaUx6nJlCxdM-93" value="" style="shape=tableRow;horizontal=0;startSize=0;swimlaneHead=0;swimlaneBody=0;strokeColor=inherit;top=0;left=0;bottom=0;right=0;collapsible=0;dropTarget=0;fillColor=none;points=[[0,0.5],[1,0.5]];portConstraint=eastwest;fontSize=10;" vertex="1" parent="vLq8mKLzVaUx6nJlCxdM-88">
          <mxGeometry y="36" width="196.5" height="18" as="geometry" />
        </mxCell>
        <mxCell id="vLq8mKLzVaUx6nJlCxdM-94" value="1" style="shape=partialRectangle;html=1;whiteSpace=wrap;connectable=0;strokeColor=inherit;overflow=hidden;fillColor=none;top=0;left=0;bottom=0;right=0;pointerEvents=1;fontSize=10;" vertex="1" parent="vLq8mKLzVaUx6nJlCxdM-93">
          <mxGeometry width="44" height="18" as="geometry">
            <mxRectangle width="44" height="18" as="alternateBounds" />
          </mxGeometry>
        </mxCell>
        <mxCell id="vLq8mKLzVaUx6nJlCxdM-95" value="aaa" style="shape=partialRectangle;html=1;whiteSpace=wrap;connectable=0;strokeColor=inherit;overflow=hidden;fillColor=none;top=0;left=0;bottom=0;right=0;pointerEvents=1;fontSize=10;" vertex="1" parent="vLq8mKLzVaUx6nJlCxdM-93">
          <mxGeometry x="44" width="45" height="18" as="geometry">
            <mxRectangle width="45" height="18" as="alternateBounds" />
          </mxGeometry>
        </mxCell>
        <mxCell id="vLq8mKLzVaUx6nJlCxdM-96" value="-" style="shape=partialRectangle;html=1;whiteSpace=wrap;connectable=0;strokeColor=inherit;overflow=hidden;fillColor=none;top=0;left=0;bottom=0;right=0;pointerEvents=1;fontSize=10;" vertex="1" parent="vLq8mKLzVaUx6nJlCxdM-93">
          <mxGeometry x="89" width="54" height="18" as="geometry">
            <mxRectangle width="54" height="18" as="alternateBounds" />
          </mxGeometry>
        </mxCell>
        <mxCell id="vLq8mKLzVaUx6nJlCxdM-102" value="-" style="shape=partialRectangle;html=1;whiteSpace=wrap;connectable=0;strokeColor=inherit;overflow=hidden;fillColor=none;top=0;left=0;bottom=0;right=0;pointerEvents=1;fontSize=10;" vertex="1" parent="vLq8mKLzVaUx6nJlCxdM-93">
          <mxGeometry x="143" width="54" height="18" as="geometry">
            <mxRectangle width="54" height="18" as="alternateBounds" />
          </mxGeometry>
        </mxCell>
        <mxCell id="vLq8mKLzVaUx6nJlCxdM-97" value="" style="shape=tableRow;horizontal=0;startSize=0;swimlaneHead=0;swimlaneBody=0;strokeColor=inherit;top=0;left=0;bottom=0;right=0;collapsible=0;dropTarget=0;fillColor=none;points=[[0,0.5],[1,0.5]];portConstraint=eastwest;fontSize=10;" vertex="1" parent="vLq8mKLzVaUx6nJlCxdM-88">
          <mxGeometry y="54" width="196.5" height="16" as="geometry" />
        </mxCell>
        <mxCell id="vLq8mKLzVaUx6nJlCxdM-98" value="2" style="shape=partialRectangle;html=1;whiteSpace=wrap;connectable=0;strokeColor=inherit;overflow=hidden;fillColor=none;top=0;left=0;bottom=0;right=0;pointerEvents=1;fontSize=10;" vertex="1" parent="vLq8mKLzVaUx6nJlCxdM-97">
          <mxGeometry width="44" height="16" as="geometry">
            <mxRectangle width="44" height="16" as="alternateBounds" />
          </mxGeometry>
        </mxCell>
        <mxCell id="vLq8mKLzVaUx6nJlCxdM-99" value="bbb" style="shape=partialRectangle;html=1;whiteSpace=wrap;connectable=0;strokeColor=inherit;overflow=hidden;fillColor=none;top=0;left=0;bottom=0;right=0;pointerEvents=1;fontSize=10;" vertex="1" parent="vLq8mKLzVaUx6nJlCxdM-97">
          <mxGeometry x="44" width="45" height="16" as="geometry">
            <mxRectangle width="45" height="16" as="alternateBounds" />
          </mxGeometry>
        </mxCell>
        <mxCell id="vLq8mKLzVaUx6nJlCxdM-100" value="-" style="shape=partialRectangle;html=1;whiteSpace=wrap;connectable=0;strokeColor=inherit;overflow=hidden;fillColor=none;top=0;left=0;bottom=0;right=0;pointerEvents=1;fontSize=10;" vertex="1" parent="vLq8mKLzVaUx6nJlCxdM-97">
          <mxGeometry x="89" width="54" height="16" as="geometry">
            <mxRectangle width="54" height="16" as="alternateBounds" />
          </mxGeometry>
        </mxCell>
        <mxCell id="vLq8mKLzVaUx6nJlCxdM-103" value="-" style="shape=partialRectangle;html=1;whiteSpace=wrap;connectable=0;strokeColor=inherit;overflow=hidden;fillColor=none;top=0;left=0;bottom=0;right=0;pointerEvents=1;fontSize=10;" vertex="1" parent="vLq8mKLzVaUx6nJlCxdM-97">
          <mxGeometry x="143" width="54" height="16" as="geometry">
            <mxRectangle width="54" height="16" as="alternateBounds" />
          </mxGeometry>
        </mxCell>
        <mxCell id="vLq8mKLzVaUx6nJlCxdM-104" style="shape=tableRow;horizontal=0;startSize=0;swimlaneHead=0;swimlaneBody=0;strokeColor=inherit;top=0;left=0;bottom=0;right=0;collapsible=0;dropTarget=0;fillColor=none;points=[[0,0.5],[1,0.5]];portConstraint=eastwest;fontSize=10;" vertex="1" parent="vLq8mKLzVaUx6nJlCxdM-88">
          <mxGeometry y="70" width="196.5" height="16" as="geometry" />
        </mxCell>
        <mxCell id="vLq8mKLzVaUx6nJlCxdM-105" value="3" style="shape=partialRectangle;html=1;whiteSpace=wrap;connectable=0;strokeColor=inherit;overflow=hidden;fillColor=none;top=0;left=0;bottom=0;right=0;pointerEvents=1;fontSize=10;" vertex="1" parent="vLq8mKLzVaUx6nJlCxdM-104">
          <mxGeometry width="44" height="16" as="geometry">
            <mxRectangle width="44" height="16" as="alternateBounds" />
          </mxGeometry>
        </mxCell>
        <mxCell id="vLq8mKLzVaUx6nJlCxdM-106" value="ccc" style="shape=partialRectangle;html=1;whiteSpace=wrap;connectable=0;strokeColor=inherit;overflow=hidden;fillColor=none;top=0;left=0;bottom=0;right=0;pointerEvents=1;fontSize=10;" vertex="1" parent="vLq8mKLzVaUx6nJlCxdM-104">
          <mxGeometry x="44" width="45" height="16" as="geometry">
            <mxRectangle width="45" height="16" as="alternateBounds" />
          </mxGeometry>
        </mxCell>
        <mxCell id="vLq8mKLzVaUx6nJlCxdM-107" value="-" style="shape=partialRectangle;html=1;whiteSpace=wrap;connectable=0;strokeColor=inherit;overflow=hidden;fillColor=none;top=0;left=0;bottom=0;right=0;pointerEvents=1;fontSize=10;" vertex="1" parent="vLq8mKLzVaUx6nJlCxdM-104">
          <mxGeometry x="89" width="54" height="16" as="geometry">
            <mxRectangle width="54" height="16" as="alternateBounds" />
          </mxGeometry>
        </mxCell>
        <mxCell id="vLq8mKLzVaUx6nJlCxdM-108" value="-" style="shape=partialRectangle;html=1;whiteSpace=wrap;connectable=0;strokeColor=inherit;overflow=hidden;fillColor=none;top=0;left=0;bottom=0;right=0;pointerEvents=1;fontSize=10;" vertex="1" parent="vLq8mKLzVaUx6nJlCxdM-104">
          <mxGeometry x="143" width="54" height="16" as="geometry">
            <mxRectangle width="54" height="16" as="alternateBounds" />
          </mxGeometry>
        </mxCell>
        <mxCell id="vLq8mKLzVaUx6nJlCxdM-139" value="Child Table" style="shape=table;startSize=20;container=1;collapsible=0;childLayout=tableLayout;strokeColor=default;fontSize=10;" vertex="1" parent="1">
          <mxGeometry x="418.75" y="1230" width="142.5" height="102" as="geometry" />
        </mxCell>
        <mxCell id="vLq8mKLzVaUx6nJlCxdM-140" value="" style="shape=tableRow;horizontal=0;startSize=0;swimlaneHead=0;swimlaneBody=0;strokeColor=inherit;top=0;left=0;bottom=0;right=0;collapsible=0;dropTarget=0;fillColor=none;points=[[0,0.5],[1,0.5]];portConstraint=eastwest;fontSize=10;" vertex="1" parent="vLq8mKLzVaUx6nJlCxdM-139">
          <mxGeometry y="20" width="142.5" height="16" as="geometry" />
        </mxCell>
        <mxCell id="vLq8mKLzVaUx6nJlCxdM-141" value="no(PK)" style="shape=partialRectangle;html=1;whiteSpace=wrap;connectable=0;strokeColor=inherit;overflow=hidden;fillColor=none;top=0;left=0;bottom=0;right=0;pointerEvents=1;fontSize=10;" vertex="1" parent="vLq8mKLzVaUx6nJlCxdM-140">
          <mxGeometry width="44" height="16" as="geometry">
            <mxRectangle width="44" height="16" as="alternateBounds" />
          </mxGeometry>
        </mxCell>
        <mxCell id="vLq8mKLzVaUx6nJlCxdM-142" value="filepath" style="shape=partialRectangle;html=1;whiteSpace=wrap;connectable=0;strokeColor=inherit;overflow=hidden;fillColor=none;top=0;left=0;bottom=0;right=0;pointerEvents=1;fontSize=10;" vertex="1" parent="vLq8mKLzVaUx6nJlCxdM-140">
          <mxGeometry x="44" width="45" height="16" as="geometry">
            <mxRectangle width="45" height="16" as="alternateBounds" />
          </mxGeometry>
        </mxCell>
        <mxCell id="vLq8mKLzVaUx6nJlCxdM-143" value="bno(FK)" style="shape=partialRectangle;html=1;whiteSpace=wrap;connectable=0;strokeColor=inherit;overflow=hidden;fillColor=none;top=0;left=0;bottom=0;right=0;pointerEvents=1;fontSize=10;" vertex="1" parent="vLq8mKLzVaUx6nJlCxdM-140">
          <mxGeometry x="89" width="54" height="16" as="geometry">
            <mxRectangle width="54" height="16" as="alternateBounds" />
          </mxGeometry>
        </mxCell>
        <mxCell id="vLq8mKLzVaUx6nJlCxdM-145" value="" style="shape=tableRow;horizontal=0;startSize=0;swimlaneHead=0;swimlaneBody=0;strokeColor=inherit;top=0;left=0;bottom=0;right=0;collapsible=0;dropTarget=0;fillColor=none;points=[[0,0.5],[1,0.5]];portConstraint=eastwest;fontSize=10;" vertex="1" parent="vLq8mKLzVaUx6nJlCxdM-139">
          <mxGeometry y="36" width="142.5" height="18" as="geometry" />
        </mxCell>
        <mxCell id="vLq8mKLzVaUx6nJlCxdM-146" value="1" style="shape=partialRectangle;html=1;whiteSpace=wrap;connectable=0;strokeColor=inherit;overflow=hidden;fillColor=none;top=0;left=0;bottom=0;right=0;pointerEvents=1;fontSize=10;" vertex="1" parent="vLq8mKLzVaUx6nJlCxdM-145">
          <mxGeometry width="44" height="18" as="geometry">
            <mxRectangle width="44" height="18" as="alternateBounds" />
          </mxGeometry>
        </mxCell>
        <mxCell id="vLq8mKLzVaUx6nJlCxdM-147" value="a.gif" style="shape=partialRectangle;html=1;whiteSpace=wrap;connectable=0;strokeColor=inherit;overflow=hidden;fillColor=none;top=0;left=0;bottom=0;right=0;pointerEvents=1;fontSize=10;" vertex="1" parent="vLq8mKLzVaUx6nJlCxdM-145">
          <mxGeometry x="44" width="45" height="18" as="geometry">
            <mxRectangle width="45" height="18" as="alternateBounds" />
          </mxGeometry>
        </mxCell>
        <mxCell id="vLq8mKLzVaUx6nJlCxdM-148" value="1" style="shape=partialRectangle;html=1;whiteSpace=wrap;connectable=0;strokeColor=inherit;overflow=hidden;fillColor=none;top=0;left=0;bottom=0;right=0;pointerEvents=1;fontSize=10;" vertex="1" parent="vLq8mKLzVaUx6nJlCxdM-145">
          <mxGeometry x="89" width="54" height="18" as="geometry">
            <mxRectangle width="54" height="18" as="alternateBounds" />
          </mxGeometry>
        </mxCell>
        <mxCell id="vLq8mKLzVaUx6nJlCxdM-150" value="" style="shape=tableRow;horizontal=0;startSize=0;swimlaneHead=0;swimlaneBody=0;strokeColor=inherit;top=0;left=0;bottom=0;right=0;collapsible=0;dropTarget=0;fillColor=none;points=[[0,0.5],[1,0.5]];portConstraint=eastwest;fontSize=10;" vertex="1" parent="vLq8mKLzVaUx6nJlCxdM-139">
          <mxGeometry y="54" width="142.5" height="16" as="geometry" />
        </mxCell>
        <mxCell id="vLq8mKLzVaUx6nJlCxdM-151" value="2" style="shape=partialRectangle;html=1;whiteSpace=wrap;connectable=0;strokeColor=inherit;overflow=hidden;fillColor=none;top=0;left=0;bottom=0;right=0;pointerEvents=1;fontSize=10;" vertex="1" parent="vLq8mKLzVaUx6nJlCxdM-150">
          <mxGeometry width="44" height="16" as="geometry">
            <mxRectangle width="44" height="16" as="alternateBounds" />
          </mxGeometry>
        </mxCell>
        <mxCell id="vLq8mKLzVaUx6nJlCxdM-152" value="a2.gif" style="shape=partialRectangle;html=1;whiteSpace=wrap;connectable=0;strokeColor=inherit;overflow=hidden;fillColor=none;top=0;left=0;bottom=0;right=0;pointerEvents=1;fontSize=10;" vertex="1" parent="vLq8mKLzVaUx6nJlCxdM-150">
          <mxGeometry x="44" width="45" height="16" as="geometry">
            <mxRectangle width="45" height="16" as="alternateBounds" />
          </mxGeometry>
        </mxCell>
        <mxCell id="vLq8mKLzVaUx6nJlCxdM-153" value="1" style="shape=partialRectangle;html=1;whiteSpace=wrap;connectable=0;strokeColor=inherit;overflow=hidden;fillColor=none;top=0;left=0;bottom=0;right=0;pointerEvents=1;fontSize=10;" vertex="1" parent="vLq8mKLzVaUx6nJlCxdM-150">
          <mxGeometry x="89" width="54" height="16" as="geometry">
            <mxRectangle width="54" height="16" as="alternateBounds" />
          </mxGeometry>
        </mxCell>
        <mxCell id="vLq8mKLzVaUx6nJlCxdM-155" style="shape=tableRow;horizontal=0;startSize=0;swimlaneHead=0;swimlaneBody=0;strokeColor=inherit;top=0;left=0;bottom=0;right=0;collapsible=0;dropTarget=0;fillColor=none;points=[[0,0.5],[1,0.5]];portConstraint=eastwest;fontSize=10;" vertex="1" parent="vLq8mKLzVaUx6nJlCxdM-139">
          <mxGeometry y="70" width="142.5" height="16" as="geometry" />
        </mxCell>
        <mxCell id="vLq8mKLzVaUx6nJlCxdM-156" value="3" style="shape=partialRectangle;html=1;whiteSpace=wrap;connectable=0;strokeColor=inherit;overflow=hidden;fillColor=none;top=0;left=0;bottom=0;right=0;pointerEvents=1;fontSize=10;" vertex="1" parent="vLq8mKLzVaUx6nJlCxdM-155">
          <mxGeometry width="44" height="16" as="geometry">
            <mxRectangle width="44" height="16" as="alternateBounds" />
          </mxGeometry>
        </mxCell>
        <mxCell id="vLq8mKLzVaUx6nJlCxdM-157" value="c.gif" style="shape=partialRectangle;html=1;whiteSpace=wrap;connectable=0;strokeColor=inherit;overflow=hidden;fillColor=none;top=0;left=0;bottom=0;right=0;pointerEvents=1;fontSize=10;" vertex="1" parent="vLq8mKLzVaUx6nJlCxdM-155">
          <mxGeometry x="44" width="45" height="16" as="geometry">
            <mxRectangle width="45" height="16" as="alternateBounds" />
          </mxGeometry>
        </mxCell>
        <mxCell id="vLq8mKLzVaUx6nJlCxdM-158" value="3" style="shape=partialRectangle;html=1;whiteSpace=wrap;connectable=0;strokeColor=inherit;overflow=hidden;fillColor=none;top=0;left=0;bottom=0;right=0;pointerEvents=1;fontSize=10;" vertex="1" parent="vLq8mKLzVaUx6nJlCxdM-155">
          <mxGeometry x="89" width="54" height="16" as="geometry">
            <mxRectangle width="54" height="16" as="alternateBounds" />
          </mxGeometry>
        </mxCell>
        <mxCell id="vLq8mKLzVaUx6nJlCxdM-160" style="shape=tableRow;horizontal=0;startSize=0;swimlaneHead=0;swimlaneBody=0;strokeColor=inherit;top=0;left=0;bottom=0;right=0;collapsible=0;dropTarget=0;fillColor=none;points=[[0,0.5],[1,0.5]];portConstraint=eastwest;fontSize=10;" vertex="1" parent="vLq8mKLzVaUx6nJlCxdM-139">
          <mxGeometry y="86" width="142.5" height="16" as="geometry" />
        </mxCell>
        <mxCell id="vLq8mKLzVaUx6nJlCxdM-161" value="4" style="shape=partialRectangle;html=1;whiteSpace=wrap;connectable=0;strokeColor=inherit;overflow=hidden;fillColor=none;top=0;left=0;bottom=0;right=0;pointerEvents=1;fontSize=10;" vertex="1" parent="vLq8mKLzVaUx6nJlCxdM-160">
          <mxGeometry width="44" height="16" as="geometry">
            <mxRectangle width="44" height="16" as="alternateBounds" />
          </mxGeometry>
        </mxCell>
        <mxCell id="vLq8mKLzVaUx6nJlCxdM-162" value="c2.gif" style="shape=partialRectangle;html=1;whiteSpace=wrap;connectable=0;strokeColor=inherit;overflow=hidden;fillColor=none;top=0;left=0;bottom=0;right=0;pointerEvents=1;fontSize=10;" vertex="1" parent="vLq8mKLzVaUx6nJlCxdM-160">
          <mxGeometry x="44" width="45" height="16" as="geometry">
            <mxRectangle width="45" height="16" as="alternateBounds" />
          </mxGeometry>
        </mxCell>
        <mxCell id="vLq8mKLzVaUx6nJlCxdM-163" value="3" style="shape=partialRectangle;html=1;whiteSpace=wrap;connectable=0;strokeColor=inherit;overflow=hidden;fillColor=none;top=0;left=0;bottom=0;right=0;pointerEvents=1;fontSize=10;" vertex="1" parent="vLq8mKLzVaUx6nJlCxdM-160">
          <mxGeometry x="89" width="54" height="16" as="geometry">
            <mxRectangle width="54" height="16" as="alternateBounds" />
          </mxGeometry>
        </mxCell>
        <mxCell id="vLq8mKLzVaUx6nJlCxdM-190" style="edgeStyle=orthogonalEdgeStyle;rounded=0;orthogonalLoop=1;jettySize=auto;html=1;exitX=1;exitY=0.5;exitDx=0;exitDy=0;entryX=0;entryY=0.5;entryDx=0;entryDy=0;" edge="1" parent="1" source="vLq8mKLzVaUx6nJlCxdM-93" target="vLq8mKLzVaUx6nJlCxdM-145">
          <mxGeometry relative="1" as="geometry" />
        </mxCell>
        <mxCell id="vLq8mKLzVaUx6nJlCxdM-191" style="edgeStyle=orthogonalEdgeStyle;rounded=0;orthogonalLoop=1;jettySize=auto;html=1;entryX=0;entryY=0.5;entryDx=0;entryDy=0;" edge="1" parent="1" source="vLq8mKLzVaUx6nJlCxdM-93" target="vLq8mKLzVaUx6nJlCxdM-150">
          <mxGeometry relative="1" as="geometry" />
        </mxCell>
        <mxCell id="vLq8mKLzVaUx6nJlCxdM-192" value="" style="edgeStyle=entityRelationEdgeStyle;fontSize=12;html=1;endArrow=ERzeroToMany;startArrow=ERmandOne;rounded=0;exitX=0;exitY=0;exitDx=240;exitDy=20;exitPerimeter=0;startFill=0;endFill=0;" edge="1" parent="1">
          <mxGeometry width="100" height="100" relative="1" as="geometry">
            <mxPoint x="300.0000000000001" y="1234" as="sourcePoint" />
            <mxPoint x="400" y="1234" as="targetPoint" />
          </mxGeometry>
        </mxCell>
        <mxCell id="vLq8mKLzVaUx6nJlCxdM-195" value="1..*" style="edgeLabel;html=1;align=center;verticalAlign=middle;resizable=0;points=[];" vertex="1" connectable="0" parent="vLq8mKLzVaUx6nJlCxdM-192">
          <mxGeometry x="0.7457" y="1" relative="1" as="geometry">
            <mxPoint x="-7" y="-13" as="offset" />
          </mxGeometry>
        </mxCell>
        <mxCell id="vLq8mKLzVaUx6nJlCxdM-193" style="edgeStyle=orthogonalEdgeStyle;rounded=0;orthogonalLoop=1;jettySize=auto;html=1;exitX=1;exitY=0.5;exitDx=0;exitDy=0;entryX=0;entryY=0.5;entryDx=0;entryDy=0;" edge="1" parent="1" source="vLq8mKLzVaUx6nJlCxdM-104" target="vLq8mKLzVaUx6nJlCxdM-155">
          <mxGeometry relative="1" as="geometry" />
        </mxCell>
        <mxCell id="vLq8mKLzVaUx6nJlCxdM-194" style="edgeStyle=orthogonalEdgeStyle;rounded=0;orthogonalLoop=1;jettySize=auto;html=1;entryX=0;entryY=0.5;entryDx=0;entryDy=0;" edge="1" parent="1" source="vLq8mKLzVaUx6nJlCxdM-104" target="vLq8mKLzVaUx6nJlCxdM-160">
          <mxGeometry relative="1" as="geometry" />
        </mxCell>
        <mxCell id="vLq8mKLzVaUx6nJlCxdM-205" value="Table" style="shape=table;startSize=20;container=1;collapsible=0;childLayout=tableLayout;strokeColor=default;fontSize=10;spacing=0;" vertex="1" parent="1">
          <mxGeometry x="225" y="450" width="120" height="118" as="geometry" />
        </mxCell>
        <mxCell id="vLq8mKLzVaUx6nJlCxdM-206" value="" style="shape=tableRow;horizontal=0;startSize=0;swimlaneHead=0;swimlaneBody=0;strokeColor=inherit;top=0;left=0;bottom=0;right=0;collapsible=0;dropTarget=0;fillColor=none;points=[[0,0.5],[1,0.5]];portConstraint=eastwest;fontSize=16;" vertex="1" parent="vLq8mKLzVaUx6nJlCxdM-205">
          <mxGeometry y="20" width="120" height="19" as="geometry" />
        </mxCell>
        <mxCell id="vLq8mKLzVaUx6nJlCxdM-207" value="user_id" style="shape=partialRectangle;html=1;whiteSpace=wrap;connectable=0;strokeColor=inherit;overflow=hidden;fillColor=none;top=0;left=0;bottom=0;right=0;pointerEvents=1;fontSize=10;spacing=0;" vertex="1" parent="vLq8mKLzVaUx6nJlCxdM-206">
          <mxGeometry width="60" height="19" as="geometry">
            <mxRectangle width="60" height="19" as="alternateBounds" />
          </mxGeometry>
        </mxCell>
        <mxCell id="vLq8mKLzVaUx6nJlCxdM-209" value="project_id" style="shape=partialRectangle;html=1;whiteSpace=wrap;connectable=0;strokeColor=inherit;overflow=hidden;fillColor=none;top=0;left=0;bottom=0;right=0;pointerEvents=1;fontSize=10;spacing=0;" vertex="1" parent="vLq8mKLzVaUx6nJlCxdM-206">
          <mxGeometry x="60" width="60" height="19" as="geometry">
            <mxRectangle width="60" height="19" as="alternateBounds" />
          </mxGeometry>
        </mxCell>
        <mxCell id="vLq8mKLzVaUx6nJlCxdM-210" value="" style="shape=tableRow;horizontal=0;startSize=0;swimlaneHead=0;swimlaneBody=0;strokeColor=inherit;top=0;left=0;bottom=0;right=0;collapsible=0;dropTarget=0;fillColor=none;points=[[0,0.5],[1,0.5]];portConstraint=eastwest;fontSize=16;" vertex="1" parent="vLq8mKLzVaUx6nJlCxdM-205">
          <mxGeometry y="39" width="120" height="15" as="geometry" />
        </mxCell>
        <mxCell id="vLq8mKLzVaUx6nJlCxdM-211" value="1" style="shape=partialRectangle;html=1;whiteSpace=wrap;connectable=0;strokeColor=inherit;overflow=hidden;fillColor=none;top=0;left=0;bottom=0;right=0;pointerEvents=1;fontSize=10;" vertex="1" parent="vLq8mKLzVaUx6nJlCxdM-210">
          <mxGeometry width="60" height="15" as="geometry">
            <mxRectangle width="60" height="15" as="alternateBounds" />
          </mxGeometry>
        </mxCell>
        <mxCell id="vLq8mKLzVaUx6nJlCxdM-213" value="101" style="shape=partialRectangle;html=1;whiteSpace=wrap;connectable=0;strokeColor=inherit;overflow=hidden;fillColor=none;top=0;left=0;bottom=0;right=0;pointerEvents=1;fontSize=10;" vertex="1" parent="vLq8mKLzVaUx6nJlCxdM-210">
          <mxGeometry x="60" width="60" height="15" as="geometry">
            <mxRectangle width="60" height="15" as="alternateBounds" />
          </mxGeometry>
        </mxCell>
        <mxCell id="vLq8mKLzVaUx6nJlCxdM-214" value="" style="shape=tableRow;horizontal=0;startSize=0;swimlaneHead=0;swimlaneBody=0;strokeColor=inherit;top=0;left=0;bottom=0;right=0;collapsible=0;dropTarget=0;fillColor=none;points=[[0,0.5],[1,0.5]];portConstraint=eastwest;fontSize=16;" vertex="1" parent="vLq8mKLzVaUx6nJlCxdM-205">
          <mxGeometry y="54" width="120" height="16" as="geometry" />
        </mxCell>
        <mxCell id="vLq8mKLzVaUx6nJlCxdM-215" value="1" style="shape=partialRectangle;html=1;whiteSpace=wrap;connectable=0;strokeColor=inherit;overflow=hidden;fillColor=none;top=0;left=0;bottom=0;right=0;pointerEvents=1;fontSize=10;" vertex="1" parent="vLq8mKLzVaUx6nJlCxdM-214">
          <mxGeometry width="60" height="16" as="geometry">
            <mxRectangle width="60" height="16" as="alternateBounds" />
          </mxGeometry>
        </mxCell>
        <mxCell id="vLq8mKLzVaUx6nJlCxdM-217" value="103" style="shape=partialRectangle;html=1;whiteSpace=wrap;connectable=0;strokeColor=inherit;overflow=hidden;fillColor=none;top=0;left=0;bottom=0;right=0;pointerEvents=1;fontSize=10;" vertex="1" parent="vLq8mKLzVaUx6nJlCxdM-214">
          <mxGeometry x="60" width="60" height="16" as="geometry">
            <mxRectangle width="60" height="16" as="alternateBounds" />
          </mxGeometry>
        </mxCell>
        <mxCell id="vLq8mKLzVaUx6nJlCxdM-218" style="shape=tableRow;horizontal=0;startSize=0;swimlaneHead=0;swimlaneBody=0;strokeColor=inherit;top=0;left=0;bottom=0;right=0;collapsible=0;dropTarget=0;fillColor=none;points=[[0,0.5],[1,0.5]];portConstraint=eastwest;fontSize=16;" vertex="1" parent="vLq8mKLzVaUx6nJlCxdM-205">
          <mxGeometry y="70" width="120" height="16" as="geometry" />
        </mxCell>
        <mxCell id="vLq8mKLzVaUx6nJlCxdM-219" value="2" style="shape=partialRectangle;html=1;whiteSpace=wrap;connectable=0;strokeColor=inherit;overflow=hidden;fillColor=none;top=0;left=0;bottom=0;right=0;pointerEvents=1;fontSize=10;" vertex="1" parent="vLq8mKLzVaUx6nJlCxdM-218">
          <mxGeometry width="60" height="16" as="geometry">
            <mxRectangle width="60" height="16" as="alternateBounds" />
          </mxGeometry>
        </mxCell>
        <mxCell id="vLq8mKLzVaUx6nJlCxdM-220" value="101" style="shape=partialRectangle;html=1;whiteSpace=wrap;connectable=0;strokeColor=inherit;overflow=hidden;fillColor=none;top=0;left=0;bottom=0;right=0;pointerEvents=1;fontSize=10;" vertex="1" parent="vLq8mKLzVaUx6nJlCxdM-218">
          <mxGeometry x="60" width="60" height="16" as="geometry">
            <mxRectangle width="60" height="16" as="alternateBounds" />
          </mxGeometry>
        </mxCell>
        <mxCell id="vLq8mKLzVaUx6nJlCxdM-221" style="shape=tableRow;horizontal=0;startSize=0;swimlaneHead=0;swimlaneBody=0;strokeColor=inherit;top=0;left=0;bottom=0;right=0;collapsible=0;dropTarget=0;fillColor=none;points=[[0,0.5],[1,0.5]];portConstraint=eastwest;fontSize=16;" vertex="1" parent="vLq8mKLzVaUx6nJlCxdM-205">
          <mxGeometry y="86" width="120" height="16" as="geometry" />
        </mxCell>
        <mxCell id="vLq8mKLzVaUx6nJlCxdM-222" value="3" style="shape=partialRectangle;html=1;whiteSpace=wrap;connectable=0;strokeColor=inherit;overflow=hidden;fillColor=none;top=0;left=0;bottom=0;right=0;pointerEvents=1;fontSize=10;" vertex="1" parent="vLq8mKLzVaUx6nJlCxdM-221">
          <mxGeometry width="60" height="16" as="geometry">
            <mxRectangle width="60" height="16" as="alternateBounds" />
          </mxGeometry>
        </mxCell>
        <mxCell id="vLq8mKLzVaUx6nJlCxdM-223" value="102" style="shape=partialRectangle;html=1;whiteSpace=wrap;connectable=0;strokeColor=inherit;overflow=hidden;fillColor=none;top=0;left=0;bottom=0;right=0;pointerEvents=1;fontSize=10;" vertex="1" parent="vLq8mKLzVaUx6nJlCxdM-221">
          <mxGeometry x="60" width="60" height="16" as="geometry">
            <mxRectangle width="60" height="16" as="alternateBounds" />
          </mxGeometry>
        </mxCell>
        <mxCell id="vLq8mKLzVaUx6nJlCxdM-224" style="shape=tableRow;horizontal=0;startSize=0;swimlaneHead=0;swimlaneBody=0;strokeColor=inherit;top=0;left=0;bottom=0;right=0;collapsible=0;dropTarget=0;fillColor=none;points=[[0,0.5],[1,0.5]];portConstraint=eastwest;fontSize=16;" vertex="1" parent="vLq8mKLzVaUx6nJlCxdM-205">
          <mxGeometry y="102" width="120" height="16" as="geometry" />
        </mxCell>
        <mxCell id="vLq8mKLzVaUx6nJlCxdM-225" value="3" style="shape=partialRectangle;html=1;whiteSpace=wrap;connectable=0;strokeColor=inherit;overflow=hidden;fillColor=none;top=0;left=0;bottom=0;right=0;pointerEvents=1;fontSize=10;" vertex="1" parent="vLq8mKLzVaUx6nJlCxdM-224">
          <mxGeometry width="60" height="16" as="geometry">
            <mxRectangle width="60" height="16" as="alternateBounds" />
          </mxGeometry>
        </mxCell>
        <mxCell id="vLq8mKLzVaUx6nJlCxdM-226" value="103" style="shape=partialRectangle;html=1;whiteSpace=wrap;connectable=0;strokeColor=inherit;overflow=hidden;fillColor=none;top=0;left=0;bottom=0;right=0;pointerEvents=1;fontSize=10;" vertex="1" parent="vLq8mKLzVaUx6nJlCxdM-224">
          <mxGeometry x="60" width="60" height="16" as="geometry">
            <mxRectangle width="60" height="16" as="alternateBounds" />
          </mxGeometry>
        </mxCell>
        <mxCell id="vLq8mKLzVaUx6nJlCxdM-265" style="edgeStyle=orthogonalEdgeStyle;rounded=0;orthogonalLoop=1;jettySize=auto;html=1;entryX=0.5;entryY=0;entryDx=0;entryDy=0;strokeColor=default;align=center;verticalAlign=middle;fontFamily=Helvetica;fontSize=11;fontColor=default;labelBackgroundColor=default;endArrow=none;endFill=0;" edge="1" parent="1" source="vLq8mKLzVaUx6nJlCxdM-227" target="vLq8mKLzVaUx6nJlCxdM-1">
          <mxGeometry relative="1" as="geometry" />
        </mxCell>
        <mxCell id="vLq8mKLzVaUx6nJlCxdM-227" value="Table" style="shape=table;startSize=20;container=1;collapsible=0;childLayout=tableLayout;strokeColor=default;fontSize=10;spacing=0;" vertex="1" parent="1">
          <mxGeometry x="115" y="234" width="120" height="86" as="geometry" />
        </mxCell>
        <mxCell id="vLq8mKLzVaUx6nJlCxdM-228" value="" style="shape=tableRow;horizontal=0;startSize=0;swimlaneHead=0;swimlaneBody=0;strokeColor=inherit;top=0;left=0;bottom=0;right=0;collapsible=0;dropTarget=0;fillColor=none;points=[[0,0.5],[1,0.5]];portConstraint=eastwest;fontSize=16;" vertex="1" parent="vLq8mKLzVaUx6nJlCxdM-227">
          <mxGeometry y="20" width="120" height="19" as="geometry" />
        </mxCell>
        <mxCell id="vLq8mKLzVaUx6nJlCxdM-229" value="user_id" style="shape=partialRectangle;html=1;whiteSpace=wrap;connectable=0;strokeColor=inherit;overflow=hidden;fillColor=none;top=0;left=0;bottom=0;right=0;pointerEvents=1;fontSize=10;spacing=0;" vertex="1" parent="vLq8mKLzVaUx6nJlCxdM-228">
          <mxGeometry width="60" height="19" as="geometry">
            <mxRectangle width="60" height="19" as="alternateBounds" />
          </mxGeometry>
        </mxCell>
        <mxCell id="vLq8mKLzVaUx6nJlCxdM-230" value="name" style="shape=partialRectangle;html=1;whiteSpace=wrap;connectable=0;strokeColor=inherit;overflow=hidden;fillColor=none;top=0;left=0;bottom=0;right=0;pointerEvents=1;fontSize=10;spacing=0;" vertex="1" parent="vLq8mKLzVaUx6nJlCxdM-228">
          <mxGeometry x="60" width="60" height="19" as="geometry">
            <mxRectangle width="60" height="19" as="alternateBounds" />
          </mxGeometry>
        </mxCell>
        <mxCell id="vLq8mKLzVaUx6nJlCxdM-231" value="" style="shape=tableRow;horizontal=0;startSize=0;swimlaneHead=0;swimlaneBody=0;strokeColor=inherit;top=0;left=0;bottom=0;right=0;collapsible=0;dropTarget=0;fillColor=none;points=[[0,0.5],[1,0.5]];portConstraint=eastwest;fontSize=16;" vertex="1" parent="vLq8mKLzVaUx6nJlCxdM-227">
          <mxGeometry y="39" width="120" height="15" as="geometry" />
        </mxCell>
        <mxCell id="vLq8mKLzVaUx6nJlCxdM-232" value="1" style="shape=partialRectangle;html=1;whiteSpace=wrap;connectable=0;strokeColor=inherit;overflow=hidden;fillColor=none;top=0;left=0;bottom=0;right=0;pointerEvents=1;fontSize=10;" vertex="1" parent="vLq8mKLzVaUx6nJlCxdM-231">
          <mxGeometry width="60" height="15" as="geometry">
            <mxRectangle width="60" height="15" as="alternateBounds" />
          </mxGeometry>
        </mxCell>
        <mxCell id="vLq8mKLzVaUx6nJlCxdM-233" value="aaa" style="shape=partialRectangle;html=1;whiteSpace=wrap;connectable=0;strokeColor=inherit;overflow=hidden;fillColor=none;top=0;left=0;bottom=0;right=0;pointerEvents=1;fontSize=10;" vertex="1" parent="vLq8mKLzVaUx6nJlCxdM-231">
          <mxGeometry x="60" width="60" height="15" as="geometry">
            <mxRectangle width="60" height="15" as="alternateBounds" />
          </mxGeometry>
        </mxCell>
        <mxCell id="vLq8mKLzVaUx6nJlCxdM-234" value="" style="shape=tableRow;horizontal=0;startSize=0;swimlaneHead=0;swimlaneBody=0;strokeColor=inherit;top=0;left=0;bottom=0;right=0;collapsible=0;dropTarget=0;fillColor=none;points=[[0,0.5],[1,0.5]];portConstraint=eastwest;fontSize=16;" vertex="1" parent="vLq8mKLzVaUx6nJlCxdM-227">
          <mxGeometry y="54" width="120" height="16" as="geometry" />
        </mxCell>
        <mxCell id="vLq8mKLzVaUx6nJlCxdM-235" value="2" style="shape=partialRectangle;html=1;whiteSpace=wrap;connectable=0;strokeColor=inherit;overflow=hidden;fillColor=none;top=0;left=0;bottom=0;right=0;pointerEvents=1;fontSize=10;" vertex="1" parent="vLq8mKLzVaUx6nJlCxdM-234">
          <mxGeometry width="60" height="16" as="geometry">
            <mxRectangle width="60" height="16" as="alternateBounds" />
          </mxGeometry>
        </mxCell>
        <mxCell id="vLq8mKLzVaUx6nJlCxdM-236" value="bbb" style="shape=partialRectangle;html=1;whiteSpace=wrap;connectable=0;strokeColor=inherit;overflow=hidden;fillColor=none;top=0;left=0;bottom=0;right=0;pointerEvents=1;fontSize=10;" vertex="1" parent="vLq8mKLzVaUx6nJlCxdM-234">
          <mxGeometry x="60" width="60" height="16" as="geometry">
            <mxRectangle width="60" height="16" as="alternateBounds" />
          </mxGeometry>
        </mxCell>
        <mxCell id="vLq8mKLzVaUx6nJlCxdM-237" style="shape=tableRow;horizontal=0;startSize=0;swimlaneHead=0;swimlaneBody=0;strokeColor=inherit;top=0;left=0;bottom=0;right=0;collapsible=0;dropTarget=0;fillColor=none;points=[[0,0.5],[1,0.5]];portConstraint=eastwest;fontSize=16;" vertex="1" parent="vLq8mKLzVaUx6nJlCxdM-227">
          <mxGeometry y="70" width="120" height="16" as="geometry" />
        </mxCell>
        <mxCell id="vLq8mKLzVaUx6nJlCxdM-238" value="3" style="shape=partialRectangle;html=1;whiteSpace=wrap;connectable=0;strokeColor=inherit;overflow=hidden;fillColor=none;top=0;left=0;bottom=0;right=0;pointerEvents=1;fontSize=10;" vertex="1" parent="vLq8mKLzVaUx6nJlCxdM-237">
          <mxGeometry width="60" height="16" as="geometry">
            <mxRectangle width="60" height="16" as="alternateBounds" />
          </mxGeometry>
        </mxCell>
        <mxCell id="vLq8mKLzVaUx6nJlCxdM-239" value="ccc" style="shape=partialRectangle;html=1;whiteSpace=wrap;connectable=0;strokeColor=inherit;overflow=hidden;fillColor=none;top=0;left=0;bottom=0;right=0;pointerEvents=1;fontSize=10;" vertex="1" parent="vLq8mKLzVaUx6nJlCxdM-237">
          <mxGeometry x="60" width="60" height="16" as="geometry">
            <mxRectangle width="60" height="16" as="alternateBounds" />
          </mxGeometry>
        </mxCell>
        <mxCell id="vLq8mKLzVaUx6nJlCxdM-266" style="edgeStyle=orthogonalEdgeStyle;rounded=0;orthogonalLoop=1;jettySize=auto;html=1;entryX=0.5;entryY=0;entryDx=0;entryDy=0;strokeColor=default;align=center;verticalAlign=middle;fontFamily=Helvetica;fontSize=11;fontColor=default;labelBackgroundColor=default;endArrow=none;endFill=0;" edge="1" parent="1" source="vLq8mKLzVaUx6nJlCxdM-246" target="vLq8mKLzVaUx6nJlCxdM-2">
          <mxGeometry relative="1" as="geometry" />
        </mxCell>
        <mxCell id="vLq8mKLzVaUx6nJlCxdM-246" value="Table" style="shape=table;startSize=20;container=1;collapsible=0;childLayout=tableLayout;strokeColor=default;fontSize=10;spacing=0;" vertex="1" parent="1">
          <mxGeometry x="335" y="234" width="120" height="86" as="geometry" />
        </mxCell>
        <mxCell id="vLq8mKLzVaUx6nJlCxdM-247" value="" style="shape=tableRow;horizontal=0;startSize=0;swimlaneHead=0;swimlaneBody=0;strokeColor=inherit;top=0;left=0;bottom=0;right=0;collapsible=0;dropTarget=0;fillColor=none;points=[[0,0.5],[1,0.5]];portConstraint=eastwest;fontSize=16;" vertex="1" parent="vLq8mKLzVaUx6nJlCxdM-246">
          <mxGeometry y="20" width="120" height="19" as="geometry" />
        </mxCell>
        <mxCell id="vLq8mKLzVaUx6nJlCxdM-248" value="project_id" style="shape=partialRectangle;html=1;whiteSpace=wrap;connectable=0;strokeColor=inherit;overflow=hidden;fillColor=none;top=0;left=0;bottom=0;right=0;pointerEvents=1;fontSize=10;spacing=0;" vertex="1" parent="vLq8mKLzVaUx6nJlCxdM-247">
          <mxGeometry width="60" height="19" as="geometry">
            <mxRectangle width="60" height="19" as="alternateBounds" />
          </mxGeometry>
        </mxCell>
        <mxCell id="vLq8mKLzVaUx6nJlCxdM-249" value="name" style="shape=partialRectangle;html=1;whiteSpace=wrap;connectable=0;strokeColor=inherit;overflow=hidden;fillColor=none;top=0;left=0;bottom=0;right=0;pointerEvents=1;fontSize=10;spacing=0;" vertex="1" parent="vLq8mKLzVaUx6nJlCxdM-247">
          <mxGeometry x="60" width="60" height="19" as="geometry">
            <mxRectangle width="60" height="19" as="alternateBounds" />
          </mxGeometry>
        </mxCell>
        <mxCell id="vLq8mKLzVaUx6nJlCxdM-250" value="" style="shape=tableRow;horizontal=0;startSize=0;swimlaneHead=0;swimlaneBody=0;strokeColor=inherit;top=0;left=0;bottom=0;right=0;collapsible=0;dropTarget=0;fillColor=none;points=[[0,0.5],[1,0.5]];portConstraint=eastwest;fontSize=16;" vertex="1" parent="vLq8mKLzVaUx6nJlCxdM-246">
          <mxGeometry y="39" width="120" height="15" as="geometry" />
        </mxCell>
        <mxCell id="vLq8mKLzVaUx6nJlCxdM-251" value="101" style="shape=partialRectangle;html=1;whiteSpace=wrap;connectable=0;strokeColor=inherit;overflow=hidden;fillColor=none;top=0;left=0;bottom=0;right=0;pointerEvents=1;fontSize=10;" vertex="1" parent="vLq8mKLzVaUx6nJlCxdM-250">
          <mxGeometry width="60" height="15" as="geometry">
            <mxRectangle width="60" height="15" as="alternateBounds" />
          </mxGeometry>
        </mxCell>
        <mxCell id="vLq8mKLzVaUx6nJlCxdM-252" value="p1" style="shape=partialRectangle;html=1;whiteSpace=wrap;connectable=0;strokeColor=inherit;overflow=hidden;fillColor=none;top=0;left=0;bottom=0;right=0;pointerEvents=1;fontSize=10;" vertex="1" parent="vLq8mKLzVaUx6nJlCxdM-250">
          <mxGeometry x="60" width="60" height="15" as="geometry">
            <mxRectangle width="60" height="15" as="alternateBounds" />
          </mxGeometry>
        </mxCell>
        <mxCell id="vLq8mKLzVaUx6nJlCxdM-253" value="" style="shape=tableRow;horizontal=0;startSize=0;swimlaneHead=0;swimlaneBody=0;strokeColor=inherit;top=0;left=0;bottom=0;right=0;collapsible=0;dropTarget=0;fillColor=none;points=[[0,0.5],[1,0.5]];portConstraint=eastwest;fontSize=16;" vertex="1" parent="vLq8mKLzVaUx6nJlCxdM-246">
          <mxGeometry y="54" width="120" height="16" as="geometry" />
        </mxCell>
        <mxCell id="vLq8mKLzVaUx6nJlCxdM-254" value="102" style="shape=partialRectangle;html=1;whiteSpace=wrap;connectable=0;strokeColor=inherit;overflow=hidden;fillColor=none;top=0;left=0;bottom=0;right=0;pointerEvents=1;fontSize=10;" vertex="1" parent="vLq8mKLzVaUx6nJlCxdM-253">
          <mxGeometry width="60" height="16" as="geometry">
            <mxRectangle width="60" height="16" as="alternateBounds" />
          </mxGeometry>
        </mxCell>
        <mxCell id="vLq8mKLzVaUx6nJlCxdM-255" value="p2" style="shape=partialRectangle;html=1;whiteSpace=wrap;connectable=0;strokeColor=inherit;overflow=hidden;fillColor=none;top=0;left=0;bottom=0;right=0;pointerEvents=1;fontSize=10;" vertex="1" parent="vLq8mKLzVaUx6nJlCxdM-253">
          <mxGeometry x="60" width="60" height="16" as="geometry">
            <mxRectangle width="60" height="16" as="alternateBounds" />
          </mxGeometry>
        </mxCell>
        <mxCell id="vLq8mKLzVaUx6nJlCxdM-256" style="shape=tableRow;horizontal=0;startSize=0;swimlaneHead=0;swimlaneBody=0;strokeColor=inherit;top=0;left=0;bottom=0;right=0;collapsible=0;dropTarget=0;fillColor=none;points=[[0,0.5],[1,0.5]];portConstraint=eastwest;fontSize=16;" vertex="1" parent="vLq8mKLzVaUx6nJlCxdM-246">
          <mxGeometry y="70" width="120" height="16" as="geometry" />
        </mxCell>
        <mxCell id="vLq8mKLzVaUx6nJlCxdM-257" value="103" style="shape=partialRectangle;html=1;whiteSpace=wrap;connectable=0;strokeColor=inherit;overflow=hidden;fillColor=none;top=0;left=0;bottom=0;right=0;pointerEvents=1;fontSize=10;" vertex="1" parent="vLq8mKLzVaUx6nJlCxdM-256">
          <mxGeometry width="60" height="16" as="geometry">
            <mxRectangle width="60" height="16" as="alternateBounds" />
          </mxGeometry>
        </mxCell>
        <mxCell id="vLq8mKLzVaUx6nJlCxdM-258" value="p3" style="shape=partialRectangle;html=1;whiteSpace=wrap;connectable=0;strokeColor=inherit;overflow=hidden;fillColor=none;top=0;left=0;bottom=0;right=0;pointerEvents=1;fontSize=10;" vertex="1" parent="vLq8mKLzVaUx6nJlCxdM-256">
          <mxGeometry x="60" width="60" height="16" as="geometry">
            <mxRectangle width="60" height="16" as="alternateBounds" />
          </mxGeometry>
        </mxCell>
        <mxCell id="vLq8mKLzVaUx6nJlCxdM-259" style="edgeStyle=orthogonalEdgeStyle;rounded=0;orthogonalLoop=1;jettySize=auto;html=1;exitX=1;exitY=0.5;exitDx=0;exitDy=0;entryX=0;entryY=0.5;entryDx=0;entryDy=0;startArrow=open;startFill=0;endArrow=none;endFill=0;strokeColor=#e01515;" edge="1" parent="1" source="vLq8mKLzVaUx6nJlCxdM-206" target="vLq8mKLzVaUx6nJlCxdM-261">
          <mxGeometry relative="1" as="geometry">
            <mxPoint x="390" y="479.64864864864865" as="targetPoint" />
          </mxGeometry>
        </mxCell>
        <mxCell id="vLq8mKLzVaUx6nJlCxdM-261" value="다른 테이블의 PK를 가리킨다.&lt;div&gt;= Foreign Key&lt;/div&gt;&lt;div&gt;&lt;ul style=&quot;padding-left: 15px; margin-bottom: 9px;&quot;&gt;&lt;li style=&quot;&quot;&gt;다른 테이블의 Pk를 가르킨다.&lt;br&gt;&lt;/li&gt;&lt;li&gt;없는 PK를 저장할 수 없다.&lt;/li&gt;&lt;/ul&gt;&lt;/div&gt;" style="html=1;whiteSpace=wrap;fontSize=9;fontColor=#FF0000;strokeColor=none;spacing=0;align=left;" vertex="1" parent="1">
          <mxGeometry x="390" y="444" width="150" height="71" as="geometry" />
        </mxCell>
        <mxCell id="vLq8mKLzVaUx6nJlCxdM-281" value="" style="edgeStyle=orthogonalEdgeStyle;rounded=0;orthogonalLoop=1;jettySize=auto;html=1;endArrow=ERone;endFill=0;startArrow=ERzeroToOne;startFill=0;" edge="1" parent="1" source="vLq8mKLzVaUx6nJlCxdM-267" target="vLq8mKLzVaUx6nJlCxdM-274">
          <mxGeometry relative="1" as="geometry" />
        </mxCell>
        <mxCell id="vLq8mKLzVaUx6nJlCxdM-283" value="mno&lt;div&gt;1,0&lt;/div&gt;" style="edgeLabel;html=1;align=center;verticalAlign=middle;resizable=0;points=[];" vertex="1" connectable="0" parent="vLq8mKLzVaUx6nJlCxdM-281">
          <mxGeometry x="-0.6391" y="-4" relative="1" as="geometry">
            <mxPoint x="22" y="2" as="offset" />
          </mxGeometry>
        </mxCell>
        <mxCell id="vLq8mKLzVaUx6nJlCxdM-296" value="1" style="edgeLabel;html=1;align=center;verticalAlign=middle;resizable=0;points=[];" vertex="1" connectable="0" parent="vLq8mKLzVaUx6nJlCxdM-281">
          <mxGeometry x="0.7243" relative="1" as="geometry">
            <mxPoint x="5" y="-5" as="offset" />
          </mxGeometry>
        </mxCell>
        <mxCell id="vLq8mKLzVaUx6nJlCxdM-267" value="student" style="html=1;whiteSpace=wrap;" vertex="1" parent="1">
          <mxGeometry x="256.5" y="1557" width="73.5" height="30" as="geometry" />
        </mxCell>
        <mxCell id="vLq8mKLzVaUx6nJlCxdM-285" style="edgeStyle=orthogonalEdgeStyle;rounded=0;orthogonalLoop=1;jettySize=auto;html=1;exitX=0.5;exitY=1;exitDx=0;exitDy=0;entryX=0;entryY=0.5;entryDx=0;entryDy=0;startArrow=ERzeroToOne;startFill=0;endArrow=ERone;endFill=0;" edge="1" parent="1" source="vLq8mKLzVaUx6nJlCxdM-268" target="vLq8mKLzVaUx6nJlCxdM-274">
          <mxGeometry relative="1" as="geometry" />
        </mxCell>
        <mxCell id="vLq8mKLzVaUx6nJlCxdM-286" value="&lt;div&gt;1,0&lt;br&gt;&lt;/div&gt;" style="edgeLabel;html=1;align=center;verticalAlign=middle;resizable=0;points=[];" vertex="1" connectable="0" parent="vLq8mKLzVaUx6nJlCxdM-285">
          <mxGeometry x="-0.8425" y="3" relative="1" as="geometry">
            <mxPoint x="15" y="2" as="offset" />
          </mxGeometry>
        </mxCell>
        <mxCell id="vLq8mKLzVaUx6nJlCxdM-295" value="1" style="edgeLabel;html=1;align=center;verticalAlign=middle;resizable=0;points=[];" vertex="1" connectable="0" parent="vLq8mKLzVaUx6nJlCxdM-285">
          <mxGeometry x="0.8642" relative="1" as="geometry">
            <mxPoint x="-1" y="8" as="offset" />
          </mxGeometry>
        </mxCell>
        <mxCell id="vLq8mKLzVaUx6nJlCxdM-268" value="teacher" style="html=1;whiteSpace=wrap;" vertex="1" parent="1">
          <mxGeometry x="146.5" y="1557" width="73.5" height="30" as="geometry" />
        </mxCell>
        <mxCell id="vLq8mKLzVaUx6nJlCxdM-287" style="edgeStyle=orthogonalEdgeStyle;rounded=0;orthogonalLoop=1;jettySize=auto;html=1;entryX=0.5;entryY=0;entryDx=0;entryDy=0;startArrow=ERone;startFill=0;endArrow=ERone;endFill=0;" edge="1" parent="1" source="vLq8mKLzVaUx6nJlCxdM-269" target="vLq8mKLzVaUx6nJlCxdM-271">
          <mxGeometry relative="1" as="geometry" />
        </mxCell>
        <mxCell id="vLq8mKLzVaUx6nJlCxdM-288" value="1" style="edgeLabel;html=1;align=center;verticalAlign=middle;resizable=0;points=[];" vertex="1" connectable="0" parent="vLq8mKLzVaUx6nJlCxdM-287">
          <mxGeometry x="-0.5343" y="1" relative="1" as="geometry">
            <mxPoint x="5" y="-1" as="offset" />
          </mxGeometry>
        </mxCell>
        <mxCell id="vLq8mKLzVaUx6nJlCxdM-289" value="&lt;div&gt;mno&lt;/div&gt;1" style="edgeLabel;html=1;align=center;verticalAlign=middle;resizable=0;points=[];" vertex="1" connectable="0" parent="vLq8mKLzVaUx6nJlCxdM-287">
          <mxGeometry x="0.3884" y="2" relative="1" as="geometry">
            <mxPoint x="13" y="3" as="offset" />
          </mxGeometry>
        </mxCell>
        <mxCell id="vLq8mKLzVaUx6nJlCxdM-290" style="edgeStyle=orthogonalEdgeStyle;rounded=0;orthogonalLoop=1;jettySize=auto;html=1;entryX=0;entryY=0.5;entryDx=0;entryDy=0;strokeColor=default;align=center;verticalAlign=middle;fontFamily=Helvetica;fontSize=11;fontColor=default;labelBackgroundColor=default;startArrow=ERoneToMany;startFill=0;endArrow=ERone;endFill=0;" edge="1" parent="1" source="vLq8mKLzVaUx6nJlCxdM-269" target="vLq8mKLzVaUx6nJlCxdM-270">
          <mxGeometry relative="1" as="geometry" />
        </mxCell>
        <mxCell id="vLq8mKLzVaUx6nJlCxdM-291" value="rno&lt;div&gt;1&lt;/div&gt;" style="edgeLabel;html=1;align=center;verticalAlign=middle;resizable=0;points=[];" vertex="1" connectable="0" parent="vLq8mKLzVaUx6nJlCxdM-290">
          <mxGeometry x="0.115" relative="1" as="geometry">
            <mxPoint x="15" y="-18" as="offset" />
          </mxGeometry>
        </mxCell>
        <mxCell id="vLq8mKLzVaUx6nJlCxdM-292" value="1" style="edgeLabel;html=1;align=center;verticalAlign=middle;resizable=0;points=[];" vertex="1" connectable="0" parent="vLq8mKLzVaUx6nJlCxdM-290">
          <mxGeometry x="-0.7935" y="1" relative="1" as="geometry">
            <mxPoint y="-13" as="offset" />
          </mxGeometry>
        </mxCell>
        <mxCell id="vLq8mKLzVaUx6nJlCxdM-269" value="lecture" style="html=1;whiteSpace=wrap;" vertex="1" parent="1">
          <mxGeometry x="376.5" y="1470" width="73.5" height="30" as="geometry" />
        </mxCell>
        <mxCell id="vLq8mKLzVaUx6nJlCxdM-301" style="edgeStyle=orthogonalEdgeStyle;rounded=0;orthogonalLoop=1;jettySize=auto;html=1;startArrow=ERone;startFill=0;endArrow=ERoneToMany;endFill=0;" edge="1" parent="1" source="vLq8mKLzVaUx6nJlCxdM-270" target="vLq8mKLzVaUx6nJlCxdM-273">
          <mxGeometry relative="1" as="geometry" />
        </mxCell>
        <mxCell id="vLq8mKLzVaUx6nJlCxdM-302" value="1..*" style="edgeLabel;html=1;align=center;verticalAlign=middle;resizable=0;points=[];" vertex="1" connectable="0" parent="vLq8mKLzVaUx6nJlCxdM-301">
          <mxGeometry x="0.7576" y="3" relative="1" as="geometry">
            <mxPoint x="12" y="-1" as="offset" />
          </mxGeometry>
        </mxCell>
        <mxCell id="vLq8mKLzVaUx6nJlCxdM-303" value="rno&lt;div&gt;1&lt;/div&gt;" style="edgeLabel;html=1;align=center;verticalAlign=middle;resizable=0;points=[];" vertex="1" connectable="0" parent="vLq8mKLzVaUx6nJlCxdM-301">
          <mxGeometry x="-0.8743" y="1" relative="1" as="geometry">
            <mxPoint x="12" y="14" as="offset" />
          </mxGeometry>
        </mxCell>
        <mxCell id="vLq8mKLzVaUx6nJlCxdM-270" value="room" style="html=1;whiteSpace=wrap;" vertex="1" parent="1">
          <mxGeometry x="506.5" y="1470" width="73.5" height="30" as="geometry" />
        </mxCell>
        <mxCell id="vLq8mKLzVaUx6nJlCxdM-293" style="edgeStyle=orthogonalEdgeStyle;rounded=0;orthogonalLoop=1;jettySize=auto;html=1;entryX=1;entryY=0.5;entryDx=0;entryDy=0;strokeColor=default;align=center;verticalAlign=middle;fontFamily=Helvetica;fontSize=11;fontColor=default;labelBackgroundColor=default;startArrow=ERzeroToOne;startFill=0;endArrow=ERone;endFill=0;" edge="1" parent="1" source="vLq8mKLzVaUx6nJlCxdM-271" target="vLq8mKLzVaUx6nJlCxdM-274">
          <mxGeometry relative="1" as="geometry" />
        </mxCell>
        <mxCell id="vLq8mKLzVaUx6nJlCxdM-294" value="mno&lt;div&gt;1,0&lt;/div&gt;" style="edgeLabel;html=1;align=center;verticalAlign=middle;resizable=0;points=[];" vertex="1" connectable="0" parent="vLq8mKLzVaUx6nJlCxdM-293">
          <mxGeometry x="-0.7752" y="-2" relative="1" as="geometry">
            <mxPoint x="1" y="-20" as="offset" />
          </mxGeometry>
        </mxCell>
        <mxCell id="vLq8mKLzVaUx6nJlCxdM-297" value="1" style="edgeLabel;html=1;align=center;verticalAlign=middle;resizable=0;points=[];" vertex="1" connectable="0" parent="vLq8mKLzVaUx6nJlCxdM-293">
          <mxGeometry x="0.9133" y="1" relative="1" as="geometry">
            <mxPoint x="2" y="7" as="offset" />
          </mxGeometry>
        </mxCell>
        <mxCell id="vLq8mKLzVaUx6nJlCxdM-271" value="manager" style="html=1;whiteSpace=wrap;" vertex="1" parent="1">
          <mxGeometry x="376.5" y="1557" width="73.5" height="30" as="geometry" />
        </mxCell>
        <mxCell id="vLq8mKLzVaUx6nJlCxdM-298" style="edgeStyle=orthogonalEdgeStyle;rounded=0;orthogonalLoop=1;jettySize=auto;html=1;entryX=0.5;entryY=0;entryDx=0;entryDy=0;startArrow=ERzeroToMany;startFill=0;endArrow=ERone;endFill=0;" edge="1" parent="1" source="vLq8mKLzVaUx6nJlCxdM-272" target="vLq8mKLzVaUx6nJlCxdM-267">
          <mxGeometry relative="1" as="geometry" />
        </mxCell>
        <mxCell id="vLq8mKLzVaUx6nJlCxdM-299" value="0..*" style="edgeLabel;html=1;align=center;verticalAlign=middle;resizable=0;points=[];" vertex="1" connectable="0" parent="vLq8mKLzVaUx6nJlCxdM-298">
          <mxGeometry x="-0.5944" y="1" relative="1" as="geometry">
            <mxPoint x="-16" as="offset" />
          </mxGeometry>
        </mxCell>
        <mxCell id="vLq8mKLzVaUx6nJlCxdM-300" value="1&lt;div&gt;mno&lt;/div&gt;" style="edgeLabel;html=1;align=center;verticalAlign=middle;resizable=0;points=[];" vertex="1" connectable="0" parent="vLq8mKLzVaUx6nJlCxdM-298">
          <mxGeometry x="0.6193" relative="1" as="geometry">
            <mxPoint x="15" y="-5" as="offset" />
          </mxGeometry>
        </mxCell>
        <mxCell id="vLq8mKLzVaUx6nJlCxdM-305" style="edgeStyle=orthogonalEdgeStyle;rounded=0;orthogonalLoop=1;jettySize=auto;html=1;entryX=0;entryY=0.5;entryDx=0;entryDy=0;startArrow=ERzeroToMany;startFill=0;endArrow=ERone;endFill=0;" edge="1" parent="1" source="vLq8mKLzVaUx6nJlCxdM-272" target="vLq8mKLzVaUx6nJlCxdM-269">
          <mxGeometry relative="1" as="geometry" />
        </mxCell>
        <mxCell id="vLq8mKLzVaUx6nJlCxdM-272" value="lect_app" style="html=1;whiteSpace=wrap;" vertex="1" parent="1">
          <mxGeometry x="256.5" y="1470" width="73.5" height="30" as="geometry" />
        </mxCell>
        <mxCell id="vLq8mKLzVaUx6nJlCxdM-273" value="room_photo" style="html=1;whiteSpace=wrap;" vertex="1" parent="1">
          <mxGeometry x="506.5" y="1557" width="73.5" height="30" as="geometry" />
        </mxCell>
        <mxCell id="vLq8mKLzVaUx6nJlCxdM-304" style="edgeStyle=orthogonalEdgeStyle;rounded=0;orthogonalLoop=1;jettySize=auto;html=1;entryX=0;entryY=0.5;entryDx=0;entryDy=0;startArrow=ERzeroToMany;startFill=0;endArrow=ERone;endFill=0;" edge="1" parent="1" source="vLq8mKLzVaUx6nJlCxdM-274" target="vLq8mKLzVaUx6nJlCxdM-275">
          <mxGeometry relative="1" as="geometry">
            <Array as="points">
              <mxPoint x="293.5" y="1711" />
            </Array>
          </mxGeometry>
        </mxCell>
        <mxCell id="vLq8mKLzVaUx6nJlCxdM-274" value="member" style="html=1;whiteSpace=wrap;" vertex="1" parent="1">
          <mxGeometry x="256.5" y="1644" width="73.5" height="30" as="geometry" />
        </mxCell>
        <mxCell id="vLq8mKLzVaUx6nJlCxdM-275" value="address" style="html=1;whiteSpace=wrap;" vertex="1" parent="1">
          <mxGeometry x="376.5" y="1696" width="73.5" height="30" as="geometry" />
        </mxCell>
        <mxCell id="vLq8mKLzVaUx6nJlCxdM-277" style="edgeStyle=orthogonalEdgeStyle;rounded=0;orthogonalLoop=1;jettySize=auto;html=1;exitX=0.5;exitY=0;exitDx=0;exitDy=0;entryX=0.5;entryY=0;entryDx=0;entryDy=0;startArrow=ERoneToMany;startFill=0;endArrow=ERone;endFill=0;" edge="1" parent="1" source="vLq8mKLzVaUx6nJlCxdM-276" target="vLq8mKLzVaUx6nJlCxdM-269">
          <mxGeometry relative="1" as="geometry" />
        </mxCell>
        <mxCell id="vLq8mKLzVaUx6nJlCxdM-278" value="lno&lt;div&gt;1..*&lt;/div&gt;" style="edgeLabel;html=1;align=center;verticalAlign=middle;resizable=0;points=[];" vertex="1" connectable="0" parent="vLq8mKLzVaUx6nJlCxdM-277">
          <mxGeometry x="-0.8996" y="1" relative="1" as="geometry">
            <mxPoint x="-10" y="-8" as="offset" />
          </mxGeometry>
        </mxCell>
        <mxCell id="vLq8mKLzVaUx6nJlCxdM-284" value="&lt;div&gt;lno&lt;/div&gt;1" style="edgeLabel;html=1;align=center;verticalAlign=middle;resizable=0;points=[];" vertex="1" connectable="0" parent="vLq8mKLzVaUx6nJlCxdM-277">
          <mxGeometry x="0.8964" relative="1" as="geometry">
            <mxPoint x="9" y="-3" as="offset" />
          </mxGeometry>
        </mxCell>
        <mxCell id="vLq8mKLzVaUx6nJlCxdM-279" style="edgeStyle=orthogonalEdgeStyle;rounded=0;orthogonalLoop=1;jettySize=auto;html=1;entryX=0;entryY=0.5;entryDx=0;entryDy=0;startArrow=ERzeroToMany;startFill=0;endArrow=ERone;endFill=0;" edge="1" parent="1" source="vLq8mKLzVaUx6nJlCxdM-276" target="vLq8mKLzVaUx6nJlCxdM-268">
          <mxGeometry relative="1" as="geometry" />
        </mxCell>
        <mxCell id="vLq8mKLzVaUx6nJlCxdM-280" value="mno&lt;div&gt;0..*&lt;/div&gt;" style="edgeLabel;html=1;align=center;verticalAlign=middle;resizable=0;points=[];" vertex="1" connectable="0" parent="vLq8mKLzVaUx6nJlCxdM-279">
          <mxGeometry x="-0.5883" y="1" relative="1" as="geometry">
            <mxPoint x="-17" y="-5" as="offset" />
          </mxGeometry>
        </mxCell>
        <mxCell id="vLq8mKLzVaUx6nJlCxdM-282" value="1&lt;div&gt;mno&lt;/div&gt;" style="edgeLabel;html=1;align=center;verticalAlign=middle;resizable=0;points=[];" vertex="1" connectable="0" parent="vLq8mKLzVaUx6nJlCxdM-279">
          <mxGeometry x="0.8136" y="2" relative="1" as="geometry">
            <mxPoint x="-8" y="18" as="offset" />
          </mxGeometry>
        </mxCell>
        <mxCell id="vLq8mKLzVaUx6nJlCxdM-276" value="lect_teacher" style="html=1;whiteSpace=wrap;" vertex="1" parent="1">
          <mxGeometry x="73" y="1470" width="73.5" height="30" as="geometry" />
        </mxCell>
        <mxCell id="vLq8mKLzVaUx6nJlCxdM-344" style="edgeStyle=orthogonalEdgeStyle;rounded=0;orthogonalLoop=1;jettySize=auto;html=1;entryX=0;entryY=0.5;entryDx=0;entryDy=0;startArrow=ERoneToMany;startFill=0;endArrow=ERzeroToMany;endFill=0;" edge="1" parent="1" source="vLq8mKLzVaUx6nJlCxdM-306" target="vLq8mKLzVaUx6nJlCxdM-307">
          <mxGeometry relative="1" as="geometry" />
        </mxCell>
        <mxCell id="vLq8mKLzVaUx6nJlCxdM-345" value="1..*" style="edgeLabel;html=1;align=center;verticalAlign=middle;resizable=0;points=[];" vertex="1" connectable="0" parent="vLq8mKLzVaUx6nJlCxdM-344">
          <mxGeometry x="-0.8727" y="2" relative="1" as="geometry">
            <mxPoint x="3" y="17" as="offset" />
          </mxGeometry>
        </mxCell>
        <mxCell id="vLq8mKLzVaUx6nJlCxdM-346" value="0..*" style="edgeLabel;html=1;align=center;verticalAlign=middle;resizable=0;points=[];" vertex="1" connectable="0" parent="vLq8mKLzVaUx6nJlCxdM-344">
          <mxGeometry x="0.703" y="-1" relative="1" as="geometry">
            <mxPoint y="14" as="offset" />
          </mxGeometry>
        </mxCell>
        <mxCell id="vLq8mKLzVaUx6nJlCxdM-306" value="myapp_users" style="html=1;whiteSpace=wrap;" vertex="1" parent="1">
          <mxGeometry x="120" y="166" width="110" height="30" as="geometry" />
        </mxCell>
        <mxCell id="vLq8mKLzVaUx6nJlCxdM-307" value="myapp_project" style="html=1;whiteSpace=wrap;" vertex="1" parent="1">
          <mxGeometry x="340" y="166" width="110" height="30" as="geometry" />
        </mxCell>
        <mxCell id="vLq8mKLzVaUx6nJlCxdM-308" style="edgeStyle=orthogonalEdgeStyle;rounded=0;orthogonalLoop=1;jettySize=auto;html=1;entryX=0.5;entryY=0;entryDx=0;entryDy=0;strokeColor=default;align=center;verticalAlign=middle;fontFamily=Helvetica;fontSize=11;fontColor=default;labelBackgroundColor=default;endArrow=none;endFill=0;" edge="1" parent="1" source="vLq8mKLzVaUx6nJlCxdM-309" target="vLq8mKLzVaUx6nJlCxdM-306">
          <mxGeometry relative="1" as="geometry" />
        </mxCell>
        <mxCell id="vLq8mKLzVaUx6nJlCxdM-309" value="Table" style="shape=table;startSize=20;container=1;collapsible=0;childLayout=tableLayout;strokeColor=default;fontSize=10;spacing=0;" vertex="1" parent="1">
          <mxGeometry x="115" y="60" width="120" height="86" as="geometry" />
        </mxCell>
        <mxCell id="vLq8mKLzVaUx6nJlCxdM-310" value="" style="shape=tableRow;horizontal=0;startSize=0;swimlaneHead=0;swimlaneBody=0;strokeColor=inherit;top=0;left=0;bottom=0;right=0;collapsible=0;dropTarget=0;fillColor=none;points=[[0,0.5],[1,0.5]];portConstraint=eastwest;fontSize=16;" vertex="1" parent="vLq8mKLzVaUx6nJlCxdM-309">
          <mxGeometry y="20" width="120" height="19" as="geometry" />
        </mxCell>
        <mxCell id="vLq8mKLzVaUx6nJlCxdM-311" value="user_id" style="shape=partialRectangle;html=1;whiteSpace=wrap;connectable=0;strokeColor=inherit;overflow=hidden;fillColor=none;top=0;left=0;bottom=0;right=0;pointerEvents=1;fontSize=10;spacing=0;" vertex="1" parent="vLq8mKLzVaUx6nJlCxdM-310">
          <mxGeometry width="60" height="19" as="geometry">
            <mxRectangle width="60" height="19" as="alternateBounds" />
          </mxGeometry>
        </mxCell>
        <mxCell id="vLq8mKLzVaUx6nJlCxdM-312" value="name" style="shape=partialRectangle;html=1;whiteSpace=wrap;connectable=0;strokeColor=inherit;overflow=hidden;fillColor=none;top=0;left=0;bottom=0;right=0;pointerEvents=1;fontSize=10;spacing=0;" vertex="1" parent="vLq8mKLzVaUx6nJlCxdM-310">
          <mxGeometry x="60" width="60" height="19" as="geometry">
            <mxRectangle width="60" height="19" as="alternateBounds" />
          </mxGeometry>
        </mxCell>
        <mxCell id="vLq8mKLzVaUx6nJlCxdM-313" value="" style="shape=tableRow;horizontal=0;startSize=0;swimlaneHead=0;swimlaneBody=0;strokeColor=inherit;top=0;left=0;bottom=0;right=0;collapsible=0;dropTarget=0;fillColor=none;points=[[0,0.5],[1,0.5]];portConstraint=eastwest;fontSize=16;" vertex="1" parent="vLq8mKLzVaUx6nJlCxdM-309">
          <mxGeometry y="39" width="120" height="15" as="geometry" />
        </mxCell>
        <mxCell id="vLq8mKLzVaUx6nJlCxdM-314" value="1" style="shape=partialRectangle;html=1;whiteSpace=wrap;connectable=0;strokeColor=inherit;overflow=hidden;fillColor=none;top=0;left=0;bottom=0;right=0;pointerEvents=1;fontSize=10;" vertex="1" parent="vLq8mKLzVaUx6nJlCxdM-313">
          <mxGeometry width="60" height="15" as="geometry">
            <mxRectangle width="60" height="15" as="alternateBounds" />
          </mxGeometry>
        </mxCell>
        <mxCell id="vLq8mKLzVaUx6nJlCxdM-315" value="aaa" style="shape=partialRectangle;html=1;whiteSpace=wrap;connectable=0;strokeColor=inherit;overflow=hidden;fillColor=none;top=0;left=0;bottom=0;right=0;pointerEvents=1;fontSize=10;" vertex="1" parent="vLq8mKLzVaUx6nJlCxdM-313">
          <mxGeometry x="60" width="60" height="15" as="geometry">
            <mxRectangle width="60" height="15" as="alternateBounds" />
          </mxGeometry>
        </mxCell>
        <mxCell id="vLq8mKLzVaUx6nJlCxdM-316" value="" style="shape=tableRow;horizontal=0;startSize=0;swimlaneHead=0;swimlaneBody=0;strokeColor=inherit;top=0;left=0;bottom=0;right=0;collapsible=0;dropTarget=0;fillColor=none;points=[[0,0.5],[1,0.5]];portConstraint=eastwest;fontSize=16;" vertex="1" parent="vLq8mKLzVaUx6nJlCxdM-309">
          <mxGeometry y="54" width="120" height="16" as="geometry" />
        </mxCell>
        <mxCell id="vLq8mKLzVaUx6nJlCxdM-317" value="2" style="shape=partialRectangle;html=1;whiteSpace=wrap;connectable=0;strokeColor=inherit;overflow=hidden;fillColor=none;top=0;left=0;bottom=0;right=0;pointerEvents=1;fontSize=10;" vertex="1" parent="vLq8mKLzVaUx6nJlCxdM-316">
          <mxGeometry width="60" height="16" as="geometry">
            <mxRectangle width="60" height="16" as="alternateBounds" />
          </mxGeometry>
        </mxCell>
        <mxCell id="vLq8mKLzVaUx6nJlCxdM-318" value="bbb" style="shape=partialRectangle;html=1;whiteSpace=wrap;connectable=0;strokeColor=inherit;overflow=hidden;fillColor=none;top=0;left=0;bottom=0;right=0;pointerEvents=1;fontSize=10;" vertex="1" parent="vLq8mKLzVaUx6nJlCxdM-316">
          <mxGeometry x="60" width="60" height="16" as="geometry">
            <mxRectangle width="60" height="16" as="alternateBounds" />
          </mxGeometry>
        </mxCell>
        <mxCell id="vLq8mKLzVaUx6nJlCxdM-319" style="shape=tableRow;horizontal=0;startSize=0;swimlaneHead=0;swimlaneBody=0;strokeColor=inherit;top=0;left=0;bottom=0;right=0;collapsible=0;dropTarget=0;fillColor=none;points=[[0,0.5],[1,0.5]];portConstraint=eastwest;fontSize=16;" vertex="1" parent="vLq8mKLzVaUx6nJlCxdM-309">
          <mxGeometry y="70" width="120" height="16" as="geometry" />
        </mxCell>
        <mxCell id="vLq8mKLzVaUx6nJlCxdM-320" value="3" style="shape=partialRectangle;html=1;whiteSpace=wrap;connectable=0;strokeColor=inherit;overflow=hidden;fillColor=none;top=0;left=0;bottom=0;right=0;pointerEvents=1;fontSize=10;" vertex="1" parent="vLq8mKLzVaUx6nJlCxdM-319">
          <mxGeometry width="60" height="16" as="geometry">
            <mxRectangle width="60" height="16" as="alternateBounds" />
          </mxGeometry>
        </mxCell>
        <mxCell id="vLq8mKLzVaUx6nJlCxdM-321" value="ccc" style="shape=partialRectangle;html=1;whiteSpace=wrap;connectable=0;strokeColor=inherit;overflow=hidden;fillColor=none;top=0;left=0;bottom=0;right=0;pointerEvents=1;fontSize=10;" vertex="1" parent="vLq8mKLzVaUx6nJlCxdM-319">
          <mxGeometry x="60" width="60" height="16" as="geometry">
            <mxRectangle width="60" height="16" as="alternateBounds" />
          </mxGeometry>
        </mxCell>
        <mxCell id="vLq8mKLzVaUx6nJlCxdM-322" style="edgeStyle=orthogonalEdgeStyle;rounded=0;orthogonalLoop=1;jettySize=auto;html=1;entryX=0.5;entryY=0;entryDx=0;entryDy=0;strokeColor=default;align=center;verticalAlign=middle;fontFamily=Helvetica;fontSize=11;fontColor=default;labelBackgroundColor=default;endArrow=none;endFill=0;" edge="1" parent="1" source="vLq8mKLzVaUx6nJlCxdM-323" target="vLq8mKLzVaUx6nJlCxdM-307">
          <mxGeometry relative="1" as="geometry" />
        </mxCell>
        <mxCell id="vLq8mKLzVaUx6nJlCxdM-323" value="Table" style="shape=table;startSize=20;container=1;collapsible=0;childLayout=tableLayout;strokeColor=default;fontSize=10;spacing=0;" vertex="1" parent="1">
          <mxGeometry x="335" y="60" width="120" height="86" as="geometry" />
        </mxCell>
        <mxCell id="vLq8mKLzVaUx6nJlCxdM-324" value="" style="shape=tableRow;horizontal=0;startSize=0;swimlaneHead=0;swimlaneBody=0;strokeColor=inherit;top=0;left=0;bottom=0;right=0;collapsible=0;dropTarget=0;fillColor=none;points=[[0,0.5],[1,0.5]];portConstraint=eastwest;fontSize=16;" vertex="1" parent="vLq8mKLzVaUx6nJlCxdM-323">
          <mxGeometry y="20" width="120" height="19" as="geometry" />
        </mxCell>
        <mxCell id="vLq8mKLzVaUx6nJlCxdM-325" value="project_id" style="shape=partialRectangle;html=1;whiteSpace=wrap;connectable=0;strokeColor=inherit;overflow=hidden;fillColor=none;top=0;left=0;bottom=0;right=0;pointerEvents=1;fontSize=10;spacing=0;" vertex="1" parent="vLq8mKLzVaUx6nJlCxdM-324">
          <mxGeometry width="60" height="19" as="geometry">
            <mxRectangle width="60" height="19" as="alternateBounds" />
          </mxGeometry>
        </mxCell>
        <mxCell id="vLq8mKLzVaUx6nJlCxdM-326" value="name" style="shape=partialRectangle;html=1;whiteSpace=wrap;connectable=0;strokeColor=inherit;overflow=hidden;fillColor=none;top=0;left=0;bottom=0;right=0;pointerEvents=1;fontSize=10;spacing=0;" vertex="1" parent="vLq8mKLzVaUx6nJlCxdM-324">
          <mxGeometry x="60" width="60" height="19" as="geometry">
            <mxRectangle width="60" height="19" as="alternateBounds" />
          </mxGeometry>
        </mxCell>
        <mxCell id="vLq8mKLzVaUx6nJlCxdM-327" value="" style="shape=tableRow;horizontal=0;startSize=0;swimlaneHead=0;swimlaneBody=0;strokeColor=inherit;top=0;left=0;bottom=0;right=0;collapsible=0;dropTarget=0;fillColor=none;points=[[0,0.5],[1,0.5]];portConstraint=eastwest;fontSize=16;" vertex="1" parent="vLq8mKLzVaUx6nJlCxdM-323">
          <mxGeometry y="39" width="120" height="15" as="geometry" />
        </mxCell>
        <mxCell id="vLq8mKLzVaUx6nJlCxdM-328" value="101" style="shape=partialRectangle;html=1;whiteSpace=wrap;connectable=0;strokeColor=inherit;overflow=hidden;fillColor=none;top=0;left=0;bottom=0;right=0;pointerEvents=1;fontSize=10;" vertex="1" parent="vLq8mKLzVaUx6nJlCxdM-327">
          <mxGeometry width="60" height="15" as="geometry">
            <mxRectangle width="60" height="15" as="alternateBounds" />
          </mxGeometry>
        </mxCell>
        <mxCell id="vLq8mKLzVaUx6nJlCxdM-329" value="p1" style="shape=partialRectangle;html=1;whiteSpace=wrap;connectable=0;strokeColor=inherit;overflow=hidden;fillColor=none;top=0;left=0;bottom=0;right=0;pointerEvents=1;fontSize=10;" vertex="1" parent="vLq8mKLzVaUx6nJlCxdM-327">
          <mxGeometry x="60" width="60" height="15" as="geometry">
            <mxRectangle width="60" height="15" as="alternateBounds" />
          </mxGeometry>
        </mxCell>
        <mxCell id="vLq8mKLzVaUx6nJlCxdM-330" value="" style="shape=tableRow;horizontal=0;startSize=0;swimlaneHead=0;swimlaneBody=0;strokeColor=inherit;top=0;left=0;bottom=0;right=0;collapsible=0;dropTarget=0;fillColor=none;points=[[0,0.5],[1,0.5]];portConstraint=eastwest;fontSize=16;" vertex="1" parent="vLq8mKLzVaUx6nJlCxdM-323">
          <mxGeometry y="54" width="120" height="16" as="geometry" />
        </mxCell>
        <mxCell id="vLq8mKLzVaUx6nJlCxdM-331" value="102" style="shape=partialRectangle;html=1;whiteSpace=wrap;connectable=0;strokeColor=inherit;overflow=hidden;fillColor=none;top=0;left=0;bottom=0;right=0;pointerEvents=1;fontSize=10;" vertex="1" parent="vLq8mKLzVaUx6nJlCxdM-330">
          <mxGeometry width="60" height="16" as="geometry">
            <mxRectangle width="60" height="16" as="alternateBounds" />
          </mxGeometry>
        </mxCell>
        <mxCell id="vLq8mKLzVaUx6nJlCxdM-332" value="p2" style="shape=partialRectangle;html=1;whiteSpace=wrap;connectable=0;strokeColor=inherit;overflow=hidden;fillColor=none;top=0;left=0;bottom=0;right=0;pointerEvents=1;fontSize=10;" vertex="1" parent="vLq8mKLzVaUx6nJlCxdM-330">
          <mxGeometry x="60" width="60" height="16" as="geometry">
            <mxRectangle width="60" height="16" as="alternateBounds" />
          </mxGeometry>
        </mxCell>
        <mxCell id="vLq8mKLzVaUx6nJlCxdM-333" style="shape=tableRow;horizontal=0;startSize=0;swimlaneHead=0;swimlaneBody=0;strokeColor=inherit;top=0;left=0;bottom=0;right=0;collapsible=0;dropTarget=0;fillColor=none;points=[[0,0.5],[1,0.5]];portConstraint=eastwest;fontSize=16;" vertex="1" parent="vLq8mKLzVaUx6nJlCxdM-323">
          <mxGeometry y="70" width="120" height="16" as="geometry" />
        </mxCell>
        <mxCell id="vLq8mKLzVaUx6nJlCxdM-334" value="103" style="shape=partialRectangle;html=1;whiteSpace=wrap;connectable=0;strokeColor=inherit;overflow=hidden;fillColor=none;top=0;left=0;bottom=0;right=0;pointerEvents=1;fontSize=10;" vertex="1" parent="vLq8mKLzVaUx6nJlCxdM-333">
          <mxGeometry width="60" height="16" as="geometry">
            <mxRectangle width="60" height="16" as="alternateBounds" />
          </mxGeometry>
        </mxCell>
        <mxCell id="vLq8mKLzVaUx6nJlCxdM-335" value="p3" style="shape=partialRectangle;html=1;whiteSpace=wrap;connectable=0;strokeColor=inherit;overflow=hidden;fillColor=none;top=0;left=0;bottom=0;right=0;pointerEvents=1;fontSize=10;" vertex="1" parent="vLq8mKLzVaUx6nJlCxdM-333">
          <mxGeometry x="60" width="60" height="16" as="geometry">
            <mxRectangle width="60" height="16" as="alternateBounds" />
          </mxGeometry>
        </mxCell>
        <mxCell id="vLq8mKLzVaUx6nJlCxdM-339" value="" style="endArrow=open;html=1;rounded=0;exitX=1;exitY=0.5;exitDx=0;exitDy=0;entryX=0;entryY=0.5;entryDx=0;entryDy=0;endFill=0;" edge="1" parent="1" source="vLq8mKLzVaUx6nJlCxdM-313" target="vLq8mKLzVaUx6nJlCxdM-327">
          <mxGeometry width="50" height="50" relative="1" as="geometry">
            <mxPoint x="360" y="200" as="sourcePoint" />
            <mxPoint x="410" y="150" as="targetPoint" />
          </mxGeometry>
        </mxCell>
        <mxCell id="vLq8mKLzVaUx6nJlCxdM-340" value="" style="endArrow=open;html=1;rounded=0;exitX=1;exitY=0.5;exitDx=0;exitDy=0;entryX=0;entryY=0.5;entryDx=0;entryDy=0;endFill=0;" edge="1" parent="1" source="vLq8mKLzVaUx6nJlCxdM-313" target="vLq8mKLzVaUx6nJlCxdM-333">
          <mxGeometry width="50" height="50" relative="1" as="geometry">
            <mxPoint x="245" y="117" as="sourcePoint" />
            <mxPoint x="345" y="117" as="targetPoint" />
          </mxGeometry>
        </mxCell>
        <mxCell id="vLq8mKLzVaUx6nJlCxdM-341" value="" style="endArrow=open;html=1;rounded=0;exitX=1;exitY=0.5;exitDx=0;exitDy=0;entryX=0;entryY=0.5;entryDx=0;entryDy=0;endFill=0;" edge="1" parent="1" source="vLq8mKLzVaUx6nJlCxdM-316" target="vLq8mKLzVaUx6nJlCxdM-327">
          <mxGeometry width="50" height="50" relative="1" as="geometry">
            <mxPoint x="255" y="127" as="sourcePoint" />
            <mxPoint x="355" y="127" as="targetPoint" />
          </mxGeometry>
        </mxCell>
        <mxCell id="vLq8mKLzVaUx6nJlCxdM-342" value="" style="endArrow=open;html=1;rounded=0;exitX=1;exitY=0.5;exitDx=0;exitDy=0;entryX=0;entryY=0.5;entryDx=0;entryDy=0;endFill=0;" edge="1" parent="1" source="vLq8mKLzVaUx6nJlCxdM-319" target="vLq8mKLzVaUx6nJlCxdM-330">
          <mxGeometry width="50" height="50" relative="1" as="geometry">
            <mxPoint x="265" y="137" as="sourcePoint" />
            <mxPoint x="365" y="137" as="targetPoint" />
          </mxGeometry>
        </mxCell>
        <mxCell id="vLq8mKLzVaUx6nJlCxdM-343" value="" style="endArrow=open;html=1;rounded=0;exitX=1;exitY=0.5;exitDx=0;exitDy=0;entryX=0;entryY=0.5;entryDx=0;entryDy=0;endFill=0;" edge="1" parent="1" source="vLq8mKLzVaUx6nJlCxdM-319" target="vLq8mKLzVaUx6nJlCxdM-333">
          <mxGeometry width="50" height="50" relative="1" as="geometry">
            <mxPoint x="275" y="147" as="sourcePoint" />
            <mxPoint x="375" y="147" as="targetPoint" />
          </mxGeometry>
        </mxCell>
      </root>
    </mxGraphModel>
  </diagram>
</mxfile>
